<svg xmlns="http://www.w3.org/2000/svg" viewBox="0 0 600 200" width="600" height="200" role="img" aria-label="analog-prep: Finds interchangeable drugs by the box name, prices the course, refuses unsafe swaps. JavaScript, Node · Express. Status: demo mode.">
  <defs>
    <linearGradient id="glass" x1="0" y1="0" x2="1" y2="1">
      <stop offset="0" stop-color="#e8f0f6" stop-opacity="0.10"/>
      <stop offset="1" stop-color="#e8f0f6" stop-opacity="0.02"/>
    </linearGradient>
    <clipPath id="card"><rect x="0" y="0" width="600" height="200" rx="12"/></clipPath>
  </defs>
  <g clip-path="url(#card)">
    <rect width="600" height="200" fill="#000000"/>
    <g fill="#ffffff" opacity="0.02"><rect x="0" y="0" width="600" height="2"/><rect x="0" y="18" width="600" height="2"/><rect x="0" y="36" width="600" height="2"/><rect x="0" y="54" width="600" height="2"/><rect x="0" y="72" width="600" height="2"/><rect x="0" y="90" width="600" height="2"/><rect x="0" y="108" width="600" height="2"/><rect x="0" y="126" width="600" height="2"/><rect x="0" y="144" width="600" height="2"/><rect x="0" y="162" width="600" height="2"/><rect x="0" y="180" width="600" height="2"/><rect x="0" y="198" width="600" height="2"/></g>
    <g stroke="#dfe6ec" fill="none" stroke-width="1">
      <polyline stroke-opacity="0.22" points="525,0 532,40 533,80 514,120 521,160 530,200"/>
      <polyline stroke-opacity="0.12" points="529,120 563,128 589,122"/>
    </g>
    <g stroke="#dfe6ec" stroke-opacity="0.18" stroke-width="1">
      <polygon points="551,27 581,19 575,47 547,45" fill="url(#glass)"/>
      <polygon points="420,158 444,164 426,176" fill="url(#glass)"/>
    </g>
<path d="M38.22 56 38.17 54.29Q37.13 55.31 36.06 55.77Q34.98 56.23 33.8 56.23Q32.71 56.23 31.94 55.95Q31.16 55.67 30.66 55.18Q30.16 54.69 29.92 54.03Q29.69 53.37 29.69 52.6Q29.69 50.68 31.12 49.6Q32.54 48.51 35.34 48.51H37.98V47.39Q37.98 46.26 37.25 45.58Q36.53 44.9 35.05 44.9Q33.97 44.9 32.92 45.15Q31.87 45.39 30.75 45.83V43.84Q31.17 43.69 31.69 43.54Q32.2 43.39 32.77 43.28Q33.34 43.17 33.97 43.1Q34.59 43.03 35.22 43.03Q36.38 43.03 37.31 43.28Q38.23 43.53 38.87 44.05Q39.51 44.57 39.86 45.36Q40.2 46.15 40.2 47.21V56ZM37.98 50.2H35.17Q34.35 50.2 33.75 50.36Q33.15 50.53 32.77 50.83Q32.39 51.14 32.21 51.56Q32.02 51.99 32.02 52.52Q32.02 52.89 32.14 53.23Q32.25 53.56 32.51 53.82Q32.76 54.08 33.17 54.24Q33.57 54.39 34.16 54.39Q34.92 54.39 35.9 53.92Q36.89 53.46 37.98 52.46ZM44.83 43.25H46.79L46.88 45.31Q47.44 44.65 47.96 44.21Q48.48 43.77 48.98 43.51Q49.49 43.24 50.01 43.13Q50.53 43.03 51.08 43.03Q53.05 43.03 54.06 44.19Q55.07 45.35 55.07 47.68V56H52.86V47.86Q52.86 46.36 52.3 45.65Q51.75 44.93 50.64 44.93Q50.23 44.93 49.85 45.05Q49.46 45.17 49.04 45.47Q48.62 45.77 48.13 46.28Q47.64 46.78 47.04 47.54V56H44.83ZM67.81 56 67.76 54.29Q66.72 55.31 65.65 55.77Q64.57 56.23 63.39 56.23Q62.3 56.23 61.53 55.95Q60.75 55.67 60.25 55.18Q59.75 54.69 59.51 54.03Q59.28 53.37 59.28 52.6Q59.28 50.68 60.71 49.6Q62.13 48.51 64.93 48.51H67.57V47.39Q67.57 46.26 66.84 45.58Q66.12 44.9 64.64 44.9Q63.56 44.9 62.51 45.15Q61.46 45.39 60.34 45.83V43.84Q60.76 43.69 61.28 43.54Q61.79 43.39 62.36 43.28Q62.93 43.17 63.56 43.1Q64.18 43.03 64.81 43.03Q65.97 43.03 66.9 43.28Q67.82 43.53 68.46 44.05Q69.1 44.57 69.45 45.36Q69.79 46.15 69.79 47.21V56ZM67.57 50.2H64.76Q63.94 50.2 63.34 50.36Q62.74 50.53 62.36 50.83Q61.98 51.14 61.8 51.56Q61.61 51.99 61.61 52.52Q61.61 52.89 61.73 53.23Q61.84 53.56 62.1 53.82Q62.35 54.08 62.76 54.24Q63.16 54.39 63.75 54.39Q64.51 54.39 65.49 53.92Q66.48 53.46 67.57 52.46ZM78.76 39.88H74.99V38.06H80.99V54.16H84.79V56H74.57V54.16H78.76ZM100.31 49.53Q100.31 51.01 99.89 52.25Q99.47 53.49 98.68 54.37Q97.89 55.25 96.76 55.74Q95.63 56.23 94.2 56.23Q92.83 56.23 91.74 55.8Q90.66 55.38 89.9 54.55Q89.15 53.73 88.75 52.51Q88.35 51.29 88.35 49.7Q88.35 48.22 88.77 46.99Q89.19 45.77 89.97 44.89Q90.76 44 91.89 43.51Q93.02 43.03 94.45 43.03Q95.83 43.03 96.91 43.45Q98 43.88 98.75 44.69Q99.51 45.51 99.91 46.73Q100.31 47.95 100.31 49.53ZM98.05 49.63Q98.05 48.45 97.79 47.56Q97.53 46.68 97.04 46.09Q96.56 45.5 95.87 45.2Q95.18 44.9 94.33 44.9Q93.34 44.9 92.63 45.29Q91.93 45.68 91.48 46.33Q91.03 46.97 90.82 47.83Q90.61 48.69 90.61 49.63Q90.61 50.81 90.87 51.7Q91.13 52.58 91.61 53.18Q92.09 53.77 92.78 54.06Q93.46 54.36 94.33 54.36Q95.32 54.36 96.02 53.98Q96.73 53.59 97.18 52.94Q97.63 52.29 97.84 51.44Q98.05 50.58 98.05 49.63ZM113.18 45.06Q113.54 45.5 113.74 46.09Q113.93 46.68 113.93 47.37Q113.93 48.36 113.57 49.18Q113.21 50 112.55 50.58Q111.89 51.16 110.97 51.49Q110.05 51.81 108.94 51.81Q108.14 51.81 107.45 51.64Q106.75 51.47 106.34 51.21Q106.1 51.57 105.94 51.89Q105.77 52.2 105.77 52.6Q105.77 53.08 106.23 53.4Q106.7 53.71 107.46 53.74L110.81 53.87Q111.76 53.89 112.57 54.11Q113.38 54.32 113.95 54.73Q114.53 55.14 114.85 55.73Q115.18 56.33 115.18 57.12Q115.18 57.97 114.81 58.73Q114.44 59.49 113.67 60.07Q112.91 60.65 111.72 60.99Q110.54 61.33 108.92 61.33Q107.37 61.33 106.28 61.08Q105.2 60.84 104.5 60.4Q103.8 59.96 103.49 59.36Q103.17 58.75 103.17 58.03Q103.17 57.1 103.6 56.41Q104.03 55.71 104.93 55.06Q104.6 54.91 104.36 54.68Q104.12 54.45 103.97 54.18Q103.82 53.91 103.74 53.6Q103.66 53.3 103.66 53Q103.66 52.18 104.05 51.49Q104.44 50.81 104.97 50.2Q104.73 49.91 104.55 49.63Q104.36 49.35 104.23 49.02Q104.09 48.7 104.02 48.33Q103.96 47.95 103.96 47.47Q103.96 46.48 104.32 45.66Q104.68 44.84 105.33 44.26Q105.99 43.67 106.91 43.35Q107.83 43.03 108.94 43.03Q109.41 43.03 109.85 43.09Q110.28 43.15 110.61 43.25H115.23V45.06ZM105.52 57.84Q105.52 58.74 106.46 59.15Q107.4 59.57 109.07 59.57Q110.12 59.57 110.84 59.38Q111.56 59.19 112 58.88Q112.44 58.56 112.63 58.16Q112.82 57.76 112.82 57.35Q112.82 56.57 112.18 56.2Q111.55 55.83 110.24 55.77L106.91 55.66Q106.49 55.94 106.22 56.2Q105.95 56.47 105.8 56.74Q105.64 57.02 105.58 57.29Q105.52 57.56 105.52 57.84ZM106.19 47.42Q106.19 48.03 106.39 48.54Q106.6 49.04 106.96 49.4Q107.33 49.75 107.83 49.95Q108.33 50.15 108.94 50.15Q109.6 50.15 110.12 49.93Q110.63 49.7 110.98 49.32Q111.33 48.94 111.52 48.45Q111.7 47.95 111.7 47.42Q111.7 46.81 111.5 46.3Q111.29 45.79 110.92 45.44Q110.56 45.08 110.06 44.89Q109.55 44.69 108.94 44.69Q108.28 44.69 107.77 44.92Q107.26 45.15 106.91 45.52Q106.56 45.89 106.37 46.39Q106.19 46.88 106.19 47.42ZM127.71 50.12H120.12V48.04H127.71ZM144.49 49.4Q144.49 51.1 144.01 52.37Q143.54 53.64 142.7 54.48Q141.86 55.31 140.72 55.73Q139.58 56.15 138.24 56.15Q137.63 56.15 137.03 56.09Q136.43 56.03 135.8 55.87V61.21H133.6V43.25H135.56L135.7 45.39Q136.66 44.08 137.73 43.55Q138.81 43.03 140.07 43.03Q141.16 43.03 141.99 43.48Q142.81 43.94 143.37 44.77Q143.93 45.6 144.21 46.78Q144.49 47.95 144.49 49.4ZM142.23 49.5Q142.23 48.5 142.08 47.66Q141.94 46.82 141.62 46.22Q141.3 45.63 140.81 45.29Q140.31 44.96 139.63 44.96Q139.21 44.96 138.78 45.09Q138.34 45.22 137.88 45.53Q137.42 45.84 136.9 46.36Q136.39 46.87 135.8 47.63V53.82Q136.41 54.07 137.09 54.22Q137.76 54.36 138.41 54.36Q140.2 54.36 141.21 53.15Q142.23 51.94 142.23 49.5ZM148.91 43.25H150.93L150.99 45.6Q152.12 44.24 153.22 43.63Q154.32 43.03 155.44 43.03Q157.42 43.03 158.44 44.31Q159.46 45.59 159.38 48.12H157.15Q157.19 46.44 156.66 45.69Q156.13 44.93 155.12 44.93Q154.67 44.93 154.22 45.09Q153.77 45.25 153.3 45.6Q152.82 45.95 152.29 46.49Q151.75 47.04 151.15 47.81V56H148.91ZM173.95 48.95Q173.95 49.42 173.94 49.74Q173.93 50.06 173.9 50.34H164.95Q164.95 52.29 166.04 53.34Q167.13 54.39 169.19 54.39Q169.75 54.39 170.31 54.34Q170.87 54.3 171.39 54.22Q171.91 54.15 172.38 54.05Q172.86 53.96 173.27 53.84V55.66Q172.36 55.91 171.23 56.07Q170.09 56.23 168.87 56.23Q167.24 56.23 166.05 55.78Q164.87 55.34 164.12 54.5Q163.36 53.65 163 52.43Q162.64 51.2 162.64 49.65Q162.64 48.31 163.03 47.11Q163.41 45.91 164.16 45Q164.9 44.09 165.98 43.56Q167.06 43.03 168.43 43.03Q169.76 43.03 170.79 43.44Q171.82 43.86 172.52 44.63Q173.23 45.4 173.59 46.5Q173.95 47.6 173.95 48.95ZM171.65 48.64Q171.69 47.79 171.49 47.08Q171.29 46.38 170.86 45.87Q170.43 45.36 169.8 45.08Q169.17 44.79 168.33 44.79Q167.6 44.79 167.01 45.07Q166.41 45.35 165.98 45.86Q165.55 46.36 165.28 47.08Q165.01 47.79 164.95 48.64ZM188.87 49.4Q188.87 51.1 188.4 52.37Q187.92 53.64 187.08 54.48Q186.25 55.31 185.1 55.73Q183.96 56.15 182.63 56.15Q182.02 56.15 181.41 56.09Q180.81 56.03 180.19 55.87V61.21H177.98V43.25H179.95L180.09 45.39Q181.04 44.08 182.12 43.55Q183.2 43.03 184.46 43.03Q185.55 43.03 186.37 43.48Q187.2 43.94 187.76 44.77Q188.31 45.6 188.59 46.78Q188.87 47.95 188.87 49.4ZM186.61 49.5Q186.61 48.5 186.47 47.66Q186.32 46.82 186 46.22Q185.69 45.63 185.19 45.29Q184.7 44.96 184.01 44.96Q183.59 44.96 183.16 45.09Q182.73 45.22 182.27 45.53Q181.8 45.84 181.29 46.36Q180.77 46.87 180.19 47.63V53.82Q180.8 54.07 181.47 54.22Q182.14 54.36 182.79 54.36Q184.58 54.36 185.6 53.15Q186.61 51.94 186.61 49.5Z" fill="#c3cbd3"/>
    <rect x="466.6" y="32" width="105.4" height="26" rx="13" fill="#0b0e12" stroke="#2b333b"/>
    <circle cx="480.6" cy="45" r="4" fill="#d29922"/>
    <path d="M491.26 46.48Q491.26 45.73 491.46 45.15Q491.67 44.57 492.05 44.16Q492.43 43.76 492.96 43.55Q493.49 43.35 494.14 43.35Q494.42 43.35 494.69 43.38Q494.96 43.42 495.23 43.49V41.02H496.25V49.3H495.34L495.3 48.19Q494.88 48.81 494.38 49.11Q493.88 49.41 493.3 49.41Q492.79 49.41 492.41 49.19Q492.03 48.98 491.77 48.6Q491.52 48.22 491.39 47.68Q491.26 47.14 491.26 46.48ZM492.3 46.42Q492.3 47.48 492.62 48.01Q492.93 48.53 493.5 48.53Q493.89 48.53 494.32 48.19Q494.75 47.84 495.23 47.16V44.43Q494.97 44.31 494.67 44.25Q494.37 44.19 494.07 44.19Q493.23 44.19 492.77 44.73Q492.3 45.27 492.3 46.42ZM504.12 46.05Q504.12 46.26 504.12 46.41Q504.11 46.56 504.1 46.69H499.97Q499.97 47.59 500.47 48.07Q500.98 48.56 501.93 48.56Q502.19 48.56 502.44 48.54Q502.7 48.51 502.94 48.48Q503.18 48.44 503.4 48.4Q503.62 48.36 503.81 48.3V49.14Q503.39 49.26 502.87 49.33Q502.34 49.41 501.78 49.41Q501.03 49.41 500.48 49.2Q499.94 49 499.59 48.61Q499.24 48.22 499.07 47.65Q498.9 47.09 498.9 46.37Q498.9 45.75 499.08 45.2Q499.26 44.64 499.6 44.22Q499.95 43.8 500.45 43.56Q500.94 43.31 501.58 43.31Q502.19 43.31 502.67 43.51Q503.14 43.7 503.47 44.05Q503.79 44.41 503.96 44.91Q504.12 45.42 504.12 46.05ZM503.06 45.9Q503.08 45.51 502.99 45.18Q502.89 44.86 502.7 44.62Q502.5 44.39 502.21 44.26Q501.92 44.13 501.53 44.13Q501.2 44.13 500.92 44.26Q500.64 44.38 500.45 44.62Q500.25 44.85 500.12 45.18Q500 45.51 499.97 45.9ZM510.95 49.3V45.08Q510.95 44.8 510.93 44.62Q510.91 44.45 510.86 44.35Q510.82 44.24 510.75 44.2Q510.69 44.16 510.59 44.16Q510.47 44.16 510.37 44.23Q510.27 44.3 510.16 44.46Q510.04 44.62 509.9 44.88Q509.77 45.14 509.58 45.52V49.3H508.65V45.19Q508.65 44.86 508.63 44.67Q508.61 44.47 508.56 44.35Q508.52 44.24 508.45 44.2Q508.38 44.16 508.28 44.16Q508.17 44.16 508.08 44.22Q507.98 44.28 507.87 44.43Q507.76 44.58 507.62 44.85Q507.47 45.11 507.28 45.52V49.3H506.34V43.42H507.12L507.17 44.54Q507.32 44.2 507.47 43.97Q507.61 43.73 507.76 43.59Q507.91 43.45 508.09 43.38Q508.26 43.31 508.47 43.31Q508.95 43.31 509.19 43.62Q509.44 43.93 509.44 44.58Q509.58 44.28 509.71 44.04Q509.85 43.8 510 43.64Q510.16 43.48 510.35 43.4Q510.53 43.31 510.78 43.31Q511.89 43.31 511.89 45.02V49.3ZM519.47 46.31Q519.47 47 519.28 47.57Q519.09 48.14 518.72 48.55Q518.36 48.95 517.84 49.18Q517.32 49.41 516.65 49.41Q516.02 49.41 515.52 49.21Q515.02 49.01 514.67 48.63Q514.32 48.25 514.14 47.69Q513.95 47.13 513.95 46.39Q513.95 45.71 514.15 45.14Q514.34 44.58 514.7 44.17Q515.07 43.76 515.59 43.54Q516.11 43.31 516.77 43.31Q517.4 43.31 517.91 43.51Q518.41 43.7 518.75 44.08Q519.1 44.46 519.29 45.02Q519.47 45.59 519.47 46.31ZM518.43 46.36Q518.43 45.81 518.31 45.41Q518.19 45 517.97 44.73Q517.74 44.45 517.42 44.32Q517.11 44.18 516.71 44.18Q516.26 44.18 515.93 44.36Q515.61 44.54 515.4 44.84Q515.19 45.13 515.09 45.53Q515 45.92 515 46.36Q515 46.9 515.12 47.31Q515.24 47.72 515.46 48Q515.68 48.27 516 48.41Q516.31 48.54 516.71 48.54Q517.17 48.54 517.5 48.37Q517.82 48.19 518.03 47.89Q518.24 47.59 518.33 47.19Q518.43 46.8 518.43 46.36ZM533.74 49.3V45.08Q533.74 44.8 533.72 44.62Q533.7 44.45 533.66 44.35Q533.61 44.24 533.55 44.2Q533.48 44.16 533.38 44.16Q533.26 44.16 533.16 44.23Q533.06 44.3 532.95 44.46Q532.83 44.62 532.7 44.88Q532.56 45.14 532.37 45.52V49.3H531.44V45.19Q531.44 44.86 531.42 44.67Q531.4 44.47 531.35 44.35Q531.31 44.24 531.24 44.2Q531.17 44.16 531.07 44.16Q530.96 44.16 530.87 44.22Q530.78 44.28 530.66 44.43Q530.55 44.58 530.41 44.85Q530.27 45.11 530.07 45.52V49.3H529.14V43.42H529.92L529.96 44.54Q530.12 44.2 530.26 43.97Q530.4 43.73 530.55 43.59Q530.71 43.45 530.88 43.38Q531.05 43.31 531.26 43.31Q531.74 43.31 531.98 43.62Q532.23 43.93 532.23 44.58Q532.37 44.28 532.51 44.04Q532.64 43.8 532.8 43.64Q532.95 43.48 533.14 43.4Q533.33 43.31 533.57 43.31Q534.68 43.31 534.68 45.02V49.3ZM542.27 46.31Q542.27 47 542.07 47.57Q541.88 48.14 541.52 48.55Q541.15 48.95 540.63 49.18Q540.11 49.41 539.45 49.41Q538.81 49.41 538.31 49.21Q537.81 49.01 537.46 48.63Q537.12 48.25 536.93 47.69Q536.75 47.13 536.75 46.39Q536.75 45.71 536.94 45.14Q537.13 44.58 537.5 44.17Q537.86 43.76 538.38 43.54Q538.9 43.31 539.56 43.31Q540.2 43.31 540.7 43.51Q541.2 43.7 541.55 44.08Q541.9 44.46 542.08 45.02Q542.27 45.59 542.27 46.31ZM541.22 46.36Q541.22 45.81 541.1 45.41Q540.98 45 540.76 44.73Q540.54 44.45 540.22 44.32Q539.9 44.18 539.51 44.18Q539.05 44.18 538.72 44.36Q538.4 44.54 538.19 44.84Q537.98 45.13 537.89 45.53Q537.79 45.92 537.79 46.36Q537.79 46.9 537.91 47.31Q538.03 47.72 538.25 48Q538.47 48.27 538.79 48.41Q539.11 48.54 539.51 48.54Q539.96 48.54 540.29 48.37Q540.61 48.19 540.82 47.89Q541.03 47.59 541.13 47.19Q541.22 46.8 541.22 46.36ZM544.44 46.48Q544.44 45.73 544.65 45.15Q544.85 44.57 545.23 44.16Q545.61 43.76 546.14 43.55Q546.67 43.35 547.32 43.35Q547.6 43.35 547.87 43.38Q548.15 43.42 548.41 43.49V41.02H549.44V49.3H548.52L548.49 48.19Q548.06 48.81 547.56 49.11Q547.06 49.41 546.48 49.41Q545.98 49.41 545.59 49.19Q545.21 48.98 544.96 48.6Q544.7 48.22 544.57 47.68Q544.44 47.14 544.44 46.48ZM545.49 46.42Q545.49 47.48 545.8 48.01Q546.11 48.53 546.69 48.53Q547.07 48.53 547.5 48.19Q547.94 47.84 548.41 47.16V44.43Q548.16 44.31 547.85 44.25Q547.55 44.19 547.25 44.19Q546.42 44.19 545.95 44.73Q545.49 45.27 545.49 46.42ZM557.31 46.05Q557.31 46.26 557.3 46.41Q557.3 46.56 557.29 46.69H553.15Q553.15 47.59 553.66 48.07Q554.16 48.56 555.11 48.56Q555.37 48.56 555.63 48.54Q555.88 48.51 556.12 48.48Q556.37 48.44 556.58 48.4Q556.8 48.36 556.99 48.3V49.14Q556.58 49.26 556.05 49.33Q555.53 49.41 554.96 49.41Q554.21 49.41 553.66 49.2Q553.12 49 552.77 48.61Q552.42 48.22 552.25 47.65Q552.09 47.09 552.09 46.37Q552.09 45.75 552.27 45.2Q552.45 44.64 552.79 44.22Q553.13 43.8 553.63 43.56Q554.13 43.31 554.76 43.31Q555.38 43.31 555.85 43.51Q556.32 43.7 556.65 44.05Q556.97 44.41 557.14 44.91Q557.31 45.42 557.31 46.05ZM556.25 45.9Q556.27 45.51 556.17 45.18Q556.08 44.86 555.88 44.62Q555.69 44.39 555.39 44.26Q555.1 44.13 554.71 44.13Q554.38 44.13 554.1 44.26Q553.83 44.38 553.63 44.62Q553.43 44.85 553.31 45.18Q553.18 45.51 553.15 45.9Z" fill="#aab3bd"/>
    <rect x="28" y="72" width="44" height="2" fill="#7f9bb0" opacity="0.8"/>
    <rect x="78" y="72" width="112.2" height="2" fill="#3b444d"/>
    <path d="M35.36 98.98H31.02V102.29H35.13V103.45H31.02V108H29.6V97.79H35.36ZM40.92 101.28H38.6V100.16H42.29V106.87H44.63V108H38.34V106.87H40.92ZM41.4 96.87Q41.62 96.87 41.82 96.95Q42.01 97.03 42.16 97.18Q42.3 97.33 42.38 97.52Q42.47 97.71 42.47 97.94Q42.47 98.16 42.38 98.35Q42.3 98.55 42.16 98.7Q42.01 98.84 41.82 98.93Q41.62 99.01 41.4 99.01Q41.17 99.01 40.97 98.93Q40.78 98.84 40.63 98.7Q40.49 98.55 40.41 98.35Q40.33 98.16 40.33 97.94Q40.33 97.71 40.41 97.52Q40.49 97.33 40.63 97.18Q40.78 97.03 40.97 96.95Q41.17 96.87 41.4 96.87ZM47.24 100.16H48.45L48.51 101.42Q48.85 101.02 49.17 100.75Q49.49 100.48 49.8 100.31Q50.11 100.15 50.43 100.08Q50.75 100.02 51.1 100.02Q52.31 100.02 52.93 100.73Q53.55 101.45 53.55 102.88V108H52.19V102.99Q52.19 102.07 51.85 101.63Q51.5 101.19 50.82 101.19Q50.57 101.19 50.33 101.26Q50.1 101.34 49.84 101.52Q49.58 101.7 49.28 102.02Q48.98 102.33 48.6 102.8V108H47.24ZM55.84 104.24Q55.84 103.24 56.12 102.46Q56.39 101.69 56.89 101.15Q57.4 100.62 58.1 100.34Q58.81 100.06 59.68 100.06Q60.05 100.06 60.42 100.11Q60.78 100.16 61.13 100.26V96.96H62.5V108H61.28L61.23 106.52Q60.66 107.34 60 107.74Q59.33 108.14 58.56 108.14Q57.89 108.14 57.38 107.86Q56.87 107.58 56.53 107.07Q56.19 106.55 56.01 105.84Q55.84 105.12 55.84 104.24ZM57.23 104.16Q57.23 105.58 57.65 106.28Q58.07 106.98 58.83 106.98Q59.35 106.98 59.92 106.52Q60.5 106.05 61.13 105.15V101.51Q60.8 101.35 60.39 101.27Q59.98 101.19 59.58 101.19Q58.48 101.19 57.85 101.91Q57.23 102.62 57.23 104.16ZM71.45 105.86Q71.45 106.27 71.31 106.6Q71.17 106.93 70.93 107.18Q70.68 107.44 70.36 107.62Q70.04 107.8 69.68 107.91Q69.32 108.03 68.93 108.09Q68.55 108.14 68.18 108.14Q67.39 108.14 66.72 108.07Q66.05 108 65.41 107.84V106.59Q66.1 106.79 66.78 106.89Q67.46 106.99 68.13 106.99Q69.1 106.99 69.57 106.73Q70.04 106.46 70.04 105.97Q70.04 105.76 69.97 105.59Q69.89 105.42 69.7 105.27Q69.5 105.12 69.09 104.95Q68.68 104.79 67.97 104.58Q67.44 104.42 66.99 104.22Q66.54 104.02 66.21 103.75Q65.89 103.48 65.7 103.11Q65.51 102.74 65.51 102.24Q65.51 101.91 65.66 101.52Q65.82 101.13 66.18 100.8Q66.55 100.46 67.18 100.24Q67.8 100.02 68.74 100.02Q69.2 100.02 69.76 100.07Q70.32 100.12 70.93 100.24V101.45Q70.29 101.3 69.72 101.22Q69.14 101.15 68.72 101.15Q68.21 101.15 67.87 101.23Q67.52 101.3 67.3 101.44Q67.09 101.58 67 101.76Q66.9 101.95 66.9 102.16Q66.9 102.37 66.98 102.54Q67.07 102.71 67.29 102.87Q67.51 103.03 67.91 103.19Q68.31 103.35 68.95 103.54Q69.64 103.74 70.12 103.96Q70.6 104.19 70.89 104.46Q71.19 104.73 71.32 105.08Q71.45 105.42 71.45 105.86ZM85.9 101.28H83.58V100.16H87.28V106.87H89.61V108H83.33V106.87H85.9ZM86.38 96.87Q86.61 96.87 86.8 96.95Q87 97.03 87.14 97.18Q87.29 97.33 87.37 97.52Q87.45 97.71 87.45 97.94Q87.45 98.16 87.37 98.35Q87.29 98.55 87.14 98.7Q87 98.84 86.8 98.93Q86.61 99.01 86.38 99.01Q86.15 99.01 85.96 98.93Q85.76 98.84 85.62 98.7Q85.47 98.55 85.39 98.35Q85.31 98.16 85.31 97.94Q85.31 97.71 85.39 97.52Q85.47 97.33 85.62 97.18Q85.76 97.03 85.96 96.95Q86.15 96.87 86.38 96.87ZM92.23 100.16H93.44L93.49 101.42Q93.84 101.02 94.16 100.75Q94.48 100.48 94.79 100.31Q95.1 100.15 95.42 100.08Q95.74 100.02 96.08 100.02Q97.29 100.02 97.91 100.73Q98.53 101.45 98.53 102.88V108H97.17V102.99Q97.17 102.07 96.83 101.63Q96.49 101.19 95.81 101.19Q95.56 101.19 95.32 101.26Q95.08 101.34 94.82 101.52Q94.56 101.7 94.26 102.02Q93.96 102.33 93.59 102.8V108H92.23ZM107.55 107.89Q107.08 108.01 106.59 108.06Q106.1 108.11 105.59 108.11Q104.12 108.11 103.39 107.44Q102.66 106.77 102.66 105.39V101.3H100.47V100.16H102.66V98L104.02 97.65V100.16H107.55V101.3H104.02V105.28Q104.02 106.12 104.47 106.54Q104.92 106.96 105.8 106.96Q106.17 106.96 106.62 106.9Q107.06 106.84 107.55 106.72ZM116.85 103.66Q116.85 103.95 116.84 104.15Q116.83 104.34 116.82 104.52H111.31Q111.31 105.72 111.98 106.36Q112.65 107.01 113.92 107.01Q114.26 107.01 114.6 106.98Q114.95 106.95 115.27 106.91Q115.59 106.86 115.88 106.8Q116.18 106.74 116.43 106.67V107.79Q115.87 107.95 115.17 108.04Q114.47 108.14 113.72 108.14Q112.71 108.14 111.99 107.87Q111.26 107.59 110.8 107.07Q110.33 106.55 110.11 105.8Q109.89 105.05 109.89 104.09Q109.89 103.27 110.12 102.53Q110.36 101.79 110.82 101.23Q111.28 100.67 111.94 100.34Q112.6 100.02 113.45 100.02Q114.27 100.02 114.9 100.27Q115.53 100.53 115.97 101Q116.4 101.48 116.62 102.15Q116.85 102.83 116.85 103.66ZM115.43 103.47Q115.46 102.95 115.33 102.51Q115.21 102.08 114.94 101.77Q114.68 101.45 114.29 101.28Q113.9 101.1 113.39 101.1Q112.94 101.1 112.57 101.27Q112.21 101.45 111.94 101.76Q111.68 102.07 111.51 102.51Q111.35 102.95 111.31 103.47ZM119.54 100.16H120.78L120.82 101.6Q121.52 100.77 122.19 100.39Q122.87 100.02 123.55 100.02Q124.77 100.02 125.4 100.8Q126.03 101.59 125.98 103.15H124.61Q124.63 102.12 124.31 101.65Q123.98 101.19 123.36 101.19Q123.09 101.19 122.81 101.29Q122.53 101.38 122.24 101.6Q121.95 101.81 121.62 102.15Q121.29 102.48 120.91 102.96V108H119.54ZM134.31 107.71Q133.78 107.91 133.22 108.01Q132.66 108.11 132.07 108.11Q130.21 108.11 129.2 107.1Q128.2 106.09 128.2 104.16Q128.2 103.23 128.49 102.47Q128.78 101.71 129.3 101.17Q129.83 100.63 130.55 100.34Q131.28 100.05 132.15 100.05Q132.76 100.05 133.29 100.13Q133.83 100.22 134.31 100.41V101.71Q133.8 101.45 133.27 101.32Q132.75 101.2 132.18 101.2Q131.66 101.2 131.2 101.4Q130.73 101.6 130.38 101.98Q130.03 102.35 129.83 102.89Q129.62 103.43 129.62 104.11Q129.62 105.53 130.31 106.24Q131 106.95 132.23 106.95Q132.79 106.95 133.31 106.82Q133.83 106.7 134.31 106.45ZM143.52 108H142.16V102.99Q142.16 102.09 141.82 101.64Q141.48 101.19 140.85 101.19Q140.57 101.19 140.33 101.26Q140.1 101.34 139.84 101.52Q139.58 101.7 139.28 102.02Q138.97 102.33 138.57 102.8V108H137.21V96.96H138.57V100.16L138.53 101.39Q138.85 101.01 139.15 100.75Q139.46 100.48 139.77 100.32Q140.08 100.16 140.4 100.09Q140.72 100.02 141.06 100.02Q142.24 100.02 142.88 100.73Q143.52 101.45 143.52 102.88ZM151.25 108 151.22 106.95Q150.58 107.58 149.92 107.86Q149.26 108.14 148.53 108.14Q147.86 108.14 147.38 107.97Q146.9 107.8 146.6 107.5Q146.29 107.2 146.14 106.79Q146 106.38 146 105.91Q146 104.73 146.88 104.06Q147.76 103.39 149.48 103.39H151.1V102.7Q151.1 102.01 150.65 101.59Q150.21 101.17 149.3 101.17Q148.63 101.17 147.99 101.32Q147.34 101.47 146.65 101.74V100.52Q146.91 100.42 147.23 100.33Q147.55 100.24 147.9 100.17Q148.25 100.1 148.63 100.06Q149.01 100.02 149.4 100.02Q150.12 100.02 150.69 100.17Q151.26 100.33 151.65 100.65Q152.05 100.97 152.26 101.45Q152.47 101.94 152.47 102.59V108ZM151.1 104.43H149.37Q148.87 104.43 148.5 104.53Q148.13 104.63 147.9 104.82Q147.66 105.01 147.55 105.27Q147.44 105.53 147.44 105.86Q147.44 106.09 147.51 106.29Q147.58 106.5 147.73 106.66Q147.89 106.82 148.14 106.91Q148.39 107.01 148.75 107.01Q149.22 107.01 149.82 106.72Q150.43 106.44 151.1 105.82ZM155.21 100.16H156.42L156.47 101.42Q156.82 101.02 157.14 100.75Q157.46 100.48 157.76 100.31Q158.07 100.15 158.39 100.08Q158.71 100.02 159.06 100.02Q160.27 100.02 160.89 100.73Q161.51 101.45 161.51 102.88V108H160.15V102.99Q160.15 102.07 159.81 101.63Q159.46 101.19 158.78 101.19Q158.53 101.19 158.3 101.26Q158.06 101.34 157.8 101.52Q157.54 101.7 157.24 102.02Q156.94 102.33 156.57 102.8V108H155.21ZM169.85 101.27Q170.07 101.54 170.19 101.9Q170.31 102.27 170.31 102.69Q170.31 103.3 170.09 103.8Q169.87 104.3 169.46 104.66Q169.05 105.02 168.49 105.22Q167.92 105.42 167.24 105.42Q166.75 105.42 166.32 105.32Q165.89 105.21 165.64 105.05Q165.49 105.27 165.39 105.47Q165.29 105.66 165.29 105.91Q165.29 106.2 165.57 106.4Q165.86 106.59 166.33 106.61L168.39 106.69Q168.98 106.7 169.47 106.84Q169.97 106.97 170.32 107.22Q170.68 107.47 170.88 107.84Q171.08 108.2 171.08 108.69Q171.08 109.21 170.85 109.68Q170.62 110.15 170.15 110.5Q169.68 110.86 168.95 111.07Q168.23 111.28 167.23 111.28Q166.27 111.28 165.61 111.13Q164.94 110.98 164.51 110.71Q164.08 110.44 163.88 110.07Q163.69 109.7 163.69 109.25Q163.69 108.68 163.95 108.25Q164.22 107.82 164.77 107.42Q164.57 107.33 164.42 107.19Q164.27 107.05 164.18 106.88Q164.09 106.71 164.04 106.52Q163.99 106.34 163.99 106.16Q163.99 105.65 164.23 105.23Q164.47 104.8 164.8 104.43Q164.65 104.25 164.54 104.08Q164.42 103.91 164.34 103.71Q164.26 103.51 164.21 103.28Q164.17 103.05 164.17 102.75Q164.17 102.14 164.39 101.64Q164.62 101.13 165.02 100.77Q165.42 100.41 165.99 100.21Q166.55 100.02 167.24 100.02Q167.53 100.02 167.8 100.05Q168.06 100.09 168.27 100.16H171.11V101.27ZM165.13 109.13Q165.13 109.69 165.71 109.94Q166.29 110.2 167.32 110.2Q167.97 110.2 168.41 110.08Q168.85 109.96 169.12 109.77Q169.39 109.58 169.51 109.33Q169.62 109.09 169.62 108.83Q169.62 108.35 169.23 108.12Q168.84 107.9 168.04 107.86L165.99 107.79Q165.73 107.96 165.57 108.12Q165.4 108.29 165.3 108.46Q165.21 108.62 165.17 108.79Q165.13 108.96 165.13 109.13ZM165.55 102.72Q165.55 103.09 165.67 103.41Q165.8 103.72 166.02 103.94Q166.25 104.16 166.56 104.28Q166.87 104.4 167.24 104.4Q167.65 104.4 167.96 104.26Q168.28 104.12 168.5 103.89Q168.71 103.66 168.82 103.35Q168.94 103.05 168.94 102.72Q168.94 102.34 168.81 102.03Q168.69 101.72 168.46 101.5Q168.23 101.28 167.93 101.16Q167.62 101.04 167.24 101.04Q166.84 101.04 166.52 101.18Q166.2 101.32 165.99 101.55Q165.77 101.78 165.66 102.09Q165.55 102.39 165.55 102.72ZM179.82 103.66Q179.82 103.95 179.82 104.15Q179.81 104.34 179.79 104.52H174.29Q174.29 105.72 174.96 106.36Q175.63 107.01 176.9 107.01Q177.24 107.01 177.58 106.98Q177.93 106.95 178.25 106.91Q178.57 106.86 178.86 106.8Q179.15 106.74 179.4 106.67V107.79Q178.85 107.95 178.15 108.04Q177.45 108.14 176.7 108.14Q175.69 108.14 174.97 107.87Q174.24 107.59 173.77 107.07Q173.31 106.55 173.09 105.8Q172.86 105.05 172.86 104.09Q172.86 103.27 173.1 102.53Q173.34 101.79 173.8 101.23Q174.25 100.67 174.92 100.34Q175.58 100.02 176.43 100.02Q177.25 100.02 177.88 100.27Q178.51 100.53 178.95 101Q179.38 101.48 179.6 102.15Q179.82 102.83 179.82 103.66ZM178.41 103.47Q178.43 102.95 178.31 102.51Q178.18 102.08 177.92 101.77Q177.66 101.45 177.27 101.28Q176.88 101.1 176.36 101.1Q175.92 101.1 175.55 101.27Q175.18 101.45 174.92 101.76Q174.65 102.07 174.49 102.51Q174.32 102.95 174.29 103.47ZM187.24 108 187.2 106.95Q186.56 107.58 185.9 107.86Q185.24 108.14 184.52 108.14Q183.85 108.14 183.37 107.97Q182.89 107.8 182.58 107.5Q182.27 107.2 182.13 106.79Q181.99 106.38 181.99 105.91Q181.99 104.73 182.86 104.06Q183.74 103.39 185.46 103.39H187.09V102.7Q187.09 102.01 186.64 101.59Q186.2 101.17 185.28 101.17Q184.62 101.17 183.97 101.32Q183.33 101.47 182.64 101.74V100.52Q182.9 100.42 183.22 100.33Q183.53 100.24 183.88 100.17Q184.24 100.1 184.62 100.06Q185 100.02 185.39 100.02Q186.1 100.02 186.67 100.17Q187.24 100.33 187.64 100.65Q188.03 100.97 188.24 101.45Q188.45 101.94 188.45 102.59V108ZM187.09 104.43H185.36Q184.85 104.43 184.49 104.53Q184.12 104.63 183.88 104.82Q183.65 105.01 183.54 105.27Q183.42 105.53 183.42 105.86Q183.42 106.09 183.49 106.29Q183.56 106.5 183.72 106.66Q183.88 106.82 184.13 106.91Q184.38 107.01 184.74 107.01Q185.2 107.01 185.81 106.72Q186.42 106.44 187.09 105.82ZM197.9 103.94Q197.9 104.91 197.63 105.68Q197.36 106.45 196.86 106.99Q196.37 107.52 195.65 107.81Q194.94 108.09 194.05 108.09Q193.36 108.09 192.63 107.96Q191.9 107.83 191.19 107.54V96.96H192.55V100L192.49 101.45Q193.08 100.66 193.74 100.34Q194.41 100.02 195.18 100.02Q195.85 100.02 196.36 100.3Q196.87 100.58 197.21 101.09Q197.55 101.6 197.72 102.32Q197.9 103.05 197.9 103.94ZM196.51 104Q196.51 103.38 196.42 102.87Q196.33 102.35 196.13 101.98Q195.94 101.62 195.63 101.41Q195.33 101.2 194.9 101.2Q194.65 101.2 194.38 101.29Q194.12 101.37 193.83 101.56Q193.55 101.75 193.23 102.07Q192.91 102.38 192.55 102.85V106.66Q192.95 106.81 193.37 106.9Q193.78 106.99 194.15 106.99Q194.62 106.99 195.05 106.84Q195.47 106.7 195.8 106.35Q196.12 106 196.31 105.43Q196.51 104.85 196.51 104ZM202.86 98.08H200.54V96.96H204.24V106.87H206.57V108H200.28V106.87H202.86ZM215.81 103.66Q215.81 103.95 215.8 104.15Q215.8 104.34 215.78 104.52H210.27Q210.27 105.72 210.95 106.36Q211.62 107.01 212.88 107.01Q213.23 107.01 213.57 106.98Q213.91 106.95 214.23 106.91Q214.55 106.86 214.85 106.8Q215.14 106.74 215.39 106.67V107.79Q214.84 107.95 214.14 108.04Q213.44 108.14 212.69 108.14Q211.68 108.14 210.95 107.87Q210.23 107.59 209.76 107.07Q209.3 106.55 209.07 105.8Q208.85 105.05 208.85 104.09Q208.85 103.27 209.09 102.53Q209.33 101.79 209.79 101.23Q210.24 100.67 210.91 100.34Q211.57 100.02 212.41 100.02Q213.23 100.02 213.87 100.27Q214.5 100.53 214.93 101Q215.37 101.48 215.59 102.15Q215.81 102.83 215.81 103.66ZM214.4 103.47Q214.42 102.95 214.3 102.51Q214.17 102.08 213.91 101.77Q213.65 101.45 213.26 101.28Q212.87 101.1 212.35 101.1Q211.91 101.1 211.54 101.27Q211.17 101.45 210.91 101.76Q210.64 102.07 210.48 102.51Q210.31 102.95 210.27 103.47ZM226.78 104.24Q226.78 103.24 227.06 102.46Q227.33 101.69 227.83 101.15Q228.34 100.62 229.04 100.34Q229.75 100.06 230.62 100.06Q230.99 100.06 231.36 100.11Q231.72 100.16 232.07 100.26V96.96H233.44V108H232.22L232.17 106.52Q231.6 107.34 230.94 107.74Q230.27 108.14 229.5 108.14Q228.83 108.14 228.32 107.86Q227.81 107.58 227.47 107.07Q227.13 106.55 226.95 105.84Q226.78 105.12 226.78 104.24ZM228.17 104.16Q228.17 105.58 228.59 106.28Q229.01 106.98 229.77 106.98Q230.29 106.98 230.86 106.52Q231.44 106.05 232.07 105.15V101.51Q231.74 101.35 231.33 101.27Q230.92 101.19 230.52 101.19Q229.42 101.19 228.79 101.91Q228.17 102.62 228.17 104.16ZM236.5 100.16H237.74L237.78 101.6Q238.47 100.77 239.15 100.39Q239.83 100.02 240.51 100.02Q241.73 100.02 242.36 100.8Q242.99 101.59 242.94 103.15H241.57Q241.59 102.12 241.27 101.65Q240.94 101.19 240.32 101.19Q240.05 101.19 239.77 101.29Q239.49 101.38 239.2 101.6Q238.9 101.81 238.58 102.15Q238.25 102.48 237.87 102.96V108H236.5ZM251.48 108H250.26L250.21 106.73Q249.86 107.14 249.55 107.41Q249.23 107.68 248.92 107.84Q248.6 108.01 248.29 108.07Q247.97 108.14 247.62 108.14Q246.41 108.14 245.79 107.43Q245.17 106.72 245.17 105.28V100.16H246.53V105.17Q246.53 106.98 247.89 106.98Q248.14 106.98 248.38 106.9Q248.62 106.83 248.88 106.64Q249.14 106.46 249.44 106.15Q249.75 105.84 250.12 105.36V100.16H251.48ZM259.82 101.27Q260.04 101.54 260.16 101.9Q260.28 102.27 260.28 102.69Q260.28 103.3 260.06 103.8Q259.84 104.3 259.43 104.66Q259.02 105.02 258.46 105.22Q257.89 105.42 257.21 105.42Q256.72 105.42 256.29 105.32Q255.86 105.21 255.61 105.05Q255.46 105.27 255.36 105.47Q255.26 105.66 255.26 105.91Q255.26 106.2 255.54 106.4Q255.83 106.59 256.3 106.61L258.36 106.69Q258.95 106.7 259.44 106.84Q259.94 106.97 260.29 107.22Q260.65 107.47 260.85 107.84Q261.05 108.2 261.05 108.69Q261.05 109.21 260.82 109.68Q260.59 110.15 260.12 110.5Q259.65 110.86 258.92 111.07Q258.2 111.28 257.2 111.28Q256.24 111.28 255.57 111.13Q254.91 110.98 254.48 110.71Q254.05 110.44 253.85 110.07Q253.66 109.7 253.66 109.25Q253.66 108.68 253.92 108.25Q254.19 107.82 254.74 107.42Q254.54 107.33 254.39 107.19Q254.24 107.05 254.15 106.88Q254.05 106.71 254.01 106.52Q253.96 106.34 253.96 106.16Q253.96 105.65 254.2 105.23Q254.44 104.8 254.77 104.43Q254.62 104.25 254.5 104.08Q254.39 103.91 254.31 103.71Q254.23 103.51 254.18 103.28Q254.14 103.05 254.14 102.75Q254.14 102.14 254.36 101.64Q254.59 101.13 254.99 100.77Q255.39 100.41 255.96 100.21Q256.52 100.02 257.21 100.02Q257.5 100.02 257.77 100.05Q258.03 100.09 258.23 100.16H261.08V101.27ZM255.1 109.13Q255.1 109.69 255.68 109.94Q256.26 110.2 257.29 110.2Q257.94 110.2 258.38 110.08Q258.82 109.96 259.09 109.77Q259.36 109.58 259.48 109.33Q259.59 109.09 259.59 108.83Q259.59 108.35 259.2 108.12Q258.81 107.9 258.01 107.86L255.96 107.79Q255.7 107.96 255.54 108.12Q255.37 108.29 255.27 108.46Q255.18 108.62 255.14 108.79Q255.1 108.96 255.1 109.13ZM255.52 102.72Q255.52 103.09 255.64 103.41Q255.77 103.72 255.99 103.94Q256.22 104.16 256.53 104.28Q256.84 104.4 257.21 104.4Q257.62 104.4 257.93 104.26Q258.25 104.12 258.46 103.89Q258.68 103.66 258.79 103.35Q258.91 103.05 258.91 102.72Q258.91 102.34 258.78 102.03Q258.66 101.72 258.43 101.5Q258.2 101.28 257.89 101.16Q257.59 101.04 257.21 101.04Q256.8 101.04 256.49 101.18Q256.17 101.32 255.96 101.55Q255.74 101.78 255.63 102.09Q255.52 102.39 255.52 102.72ZM269.38 105.86Q269.38 106.27 269.24 106.6Q269.1 106.93 268.86 107.18Q268.61 107.44 268.29 107.62Q267.97 107.8 267.61 107.91Q267.25 108.03 266.86 108.09Q266.48 108.14 266.11 108.14Q265.32 108.14 264.65 108.07Q263.98 108 263.34 107.84V106.59Q264.03 106.79 264.71 106.89Q265.39 106.99 266.06 106.99Q267.04 106.99 267.5 106.73Q267.97 106.46 267.97 105.97Q267.97 105.76 267.9 105.59Q267.82 105.42 267.63 105.27Q267.43 105.12 267.02 104.95Q266.61 104.79 265.9 104.58Q265.37 104.42 264.92 104.22Q264.47 104.02 264.15 103.75Q263.82 103.48 263.63 103.11Q263.44 102.74 263.44 102.24Q263.44 101.91 263.59 101.52Q263.75 101.13 264.11 100.8Q264.48 100.46 265.11 100.24Q265.73 100.02 266.67 100.02Q267.13 100.02 267.69 100.07Q268.25 100.12 268.86 100.24V101.45Q268.22 101.3 267.65 101.22Q267.07 101.15 266.65 101.15Q266.15 101.15 265.8 101.23Q265.45 101.3 265.24 101.44Q265.02 101.58 264.93 101.76Q264.83 101.95 264.83 102.16Q264.83 102.37 264.91 102.54Q265 102.71 265.22 102.87Q265.44 103.03 265.84 103.19Q266.24 103.35 266.88 103.54Q267.57 103.74 268.05 103.96Q268.53 104.19 268.82 104.46Q269.12 104.73 269.25 105.08Q269.38 105.42 269.38 105.86ZM287.87 103.94Q287.87 104.91 287.6 105.68Q287.33 106.45 286.83 106.99Q286.33 107.52 285.62 107.81Q284.91 108.09 284.02 108.09Q283.33 108.09 282.6 107.96Q281.87 107.83 281.16 107.54V96.96H282.52V100L282.46 101.45Q283.05 100.66 283.71 100.34Q284.38 100.02 285.15 100.02Q285.82 100.02 286.33 100.3Q286.83 100.58 287.18 101.09Q287.52 101.6 287.69 102.32Q287.87 103.05 287.87 103.94ZM286.47 104Q286.47 103.38 286.39 102.87Q286.3 102.35 286.1 101.98Q285.9 101.62 285.6 101.41Q285.3 101.2 284.87 101.2Q284.62 101.2 284.35 101.29Q284.08 101.37 283.8 101.56Q283.51 101.75 283.2 102.07Q282.88 102.38 282.52 102.85V106.66Q282.92 106.81 283.33 106.9Q283.75 106.99 284.12 106.99Q284.59 106.99 285.02 106.84Q285.44 106.7 285.77 106.35Q286.09 106 286.28 105.43Q286.47 104.85 286.47 104ZM297.14 100.16 294.46 107.17Q294.05 108.24 293.61 109.02Q293.17 109.79 292.64 110.29Q292.12 110.78 291.5 111.02Q290.87 111.25 290.1 111.25Q289.89 111.25 289.73 111.24Q289.57 111.23 289.37 111.22V109.98Q289.54 110.01 289.75 110.03Q289.95 110.05 290.17 110.05Q290.55 110.05 290.87 109.94Q291.2 109.83 291.49 109.58Q291.78 109.34 292.04 108.95Q292.31 108.55 292.56 108L289.42 100.16H290.97L292.96 105.34L293.35 106.56L293.81 105.31L295.64 100.16ZM314.47 107.89Q314.01 108.01 313.52 108.06Q313.03 108.11 312.52 108.11Q311.04 108.11 310.32 107.44Q309.59 106.77 309.59 105.39V101.3H307.4V100.16H309.59V98L310.95 97.65V100.16H314.47V101.3H310.95V105.28Q310.95 106.12 311.4 106.54Q311.85 106.96 312.72 106.96Q313.1 106.96 313.54 106.9Q313.99 106.84 314.47 106.72ZM323.45 108H322.1V102.99Q322.1 102.09 321.76 101.64Q321.42 101.19 320.78 101.19Q320.51 101.19 320.27 101.26Q320.03 101.34 319.77 101.52Q319.52 101.7 319.21 102.02Q318.91 102.33 318.51 102.8V108H317.15V96.96H318.51V100.16L318.46 101.39Q318.78 101.01 319.09 100.75Q319.4 100.48 319.71 100.32Q320.02 100.16 320.34 100.09Q320.66 100.02 321 100.02Q322.17 100.02 322.81 100.73Q323.45 101.45 323.45 102.88ZM332.77 103.66Q332.77 103.95 332.76 104.15Q332.76 104.34 332.74 104.52H327.23Q327.23 105.72 327.9 106.36Q328.58 107.01 329.84 107.01Q330.19 107.01 330.53 106.98Q330.87 106.95 331.19 106.91Q331.51 106.86 331.81 106.8Q332.1 106.74 332.35 106.67V107.79Q331.8 107.95 331.1 108.04Q330.4 108.14 329.65 108.14Q328.64 108.14 327.91 107.87Q327.19 107.59 326.72 107.07Q326.26 106.55 326.03 105.8Q325.81 105.05 325.81 104.09Q325.81 103.27 326.05 102.53Q326.29 101.79 326.74 101.23Q327.2 100.67 327.87 100.34Q328.53 100.02 329.37 100.02Q330.19 100.02 330.83 100.27Q331.46 100.53 331.89 101Q332.33 101.48 332.55 102.15Q332.77 102.83 332.77 103.66ZM331.36 103.47Q331.38 102.95 331.26 102.51Q331.13 102.08 330.87 101.77Q330.61 101.45 330.22 101.28Q329.83 101.1 329.31 101.1Q328.87 101.1 328.5 101.27Q328.13 101.45 327.87 101.76Q327.6 102.07 327.44 102.51Q327.27 102.95 327.23 103.47ZM350.84 103.94Q350.84 104.91 350.57 105.68Q350.3 106.45 349.81 106.99Q349.31 107.52 348.6 107.81Q347.89 108.09 347 108.09Q346.3 108.09 345.58 107.96Q344.85 107.83 344.14 107.54V96.96H345.5V100L345.44 101.45Q346.02 100.66 346.69 100.34Q347.36 100.02 348.12 100.02Q348.8 100.02 349.3 100.3Q349.81 100.58 350.16 101.09Q350.5 101.6 350.67 102.32Q350.84 103.05 350.84 103.94ZM349.45 104Q349.45 103.38 349.36 102.87Q349.27 102.35 349.08 101.98Q348.88 101.62 348.58 101.41Q348.27 101.2 347.85 101.2Q347.59 101.2 347.33 101.29Q347.06 101.37 346.78 101.56Q346.49 101.75 346.18 102.07Q345.86 102.38 345.5 102.85V106.66Q345.9 106.81 346.31 106.9Q346.73 106.99 347.1 106.99Q347.57 106.99 348 106.84Q348.42 106.7 348.75 106.35Q349.07 106 349.26 105.43Q349.45 104.85 349.45 104ZM359.97 104.02Q359.97 104.93 359.71 105.69Q359.45 106.45 358.97 107Q358.48 107.54 357.79 107.84Q357.09 108.14 356.21 108.14Q355.36 108.14 354.7 107.88Q354.03 107.62 353.56 107.11Q353.1 106.6 352.85 105.85Q352.61 105.1 352.61 104.12Q352.61 103.21 352.86 102.46Q353.12 101.7 353.61 101.16Q354.09 100.62 354.79 100.32Q355.48 100.02 356.36 100.02Q357.21 100.02 357.88 100.28Q358.54 100.54 359.01 101.04Q359.47 101.55 359.72 102.3Q359.97 103.05 359.97 104.02ZM358.57 104.08Q358.57 103.35 358.41 102.81Q358.25 102.27 357.96 101.9Q357.66 101.54 357.24 101.36Q356.81 101.17 356.29 101.17Q355.68 101.17 355.24 101.41Q354.81 101.65 354.53 102.05Q354.25 102.45 354.13 102.97Q354 103.5 354 104.08Q354 104.8 354.16 105.35Q354.32 105.9 354.61 106.26Q354.91 106.62 355.33 106.81Q355.75 106.99 356.29 106.99Q356.9 106.99 357.33 106.75Q357.76 106.52 358.04 106.12Q358.32 105.72 358.45 105.19Q358.57 104.66 358.57 104.08ZM369.2 108H367.4L365.28 105.01L363.19 108H361.43L364.47 104.06L361.57 100.16H363.31L365.38 103.17L367.4 100.16H369.08L366.13 104.09ZM380.13 100.16H381.34L381.39 101.42Q381.74 101.02 382.06 100.75Q382.38 100.48 382.69 100.31Q383 100.15 383.32 100.08Q383.64 100.02 383.98 100.02Q385.19 100.02 385.81 100.73Q386.43 101.45 386.43 102.88V108H385.07V102.99Q385.07 102.07 384.73 101.63Q384.39 101.19 383.71 101.19Q383.46 101.19 383.22 101.26Q382.98 101.34 382.72 101.52Q382.46 101.7 382.16 102.02Q381.86 102.33 381.49 102.8V108H380.13ZM394.16 108 394.13 106.95Q393.49 107.58 392.83 107.86Q392.17 108.14 391.45 108.14Q390.77 108.14 390.3 107.97Q389.82 107.8 389.51 107.5Q389.2 107.2 389.06 106.79Q388.91 106.38 388.91 105.91Q388.91 104.73 389.79 104.06Q390.67 103.39 392.39 103.39H394.02V102.7Q394.02 102.01 393.57 101.59Q393.12 101.17 392.21 101.17Q391.55 101.17 390.9 101.32Q390.26 101.47 389.57 101.74V100.52Q389.83 100.42 390.14 100.33Q390.46 100.24 390.81 100.17Q391.16 100.1 391.55 100.06Q391.93 100.02 392.32 100.02Q393.03 100.02 393.6 100.17Q394.17 100.33 394.57 100.65Q394.96 100.97 395.17 101.45Q395.38 101.94 395.38 102.59V108ZM394.02 104.43H392.29Q391.78 104.43 391.41 104.53Q391.05 104.63 390.81 104.82Q390.58 105.01 390.46 105.27Q390.35 105.53 390.35 105.86Q390.35 106.09 390.42 106.29Q390.49 106.5 390.65 106.66Q390.8 106.82 391.05 106.91Q391.3 107.01 391.66 107.01Q392.13 107.01 392.74 106.72Q393.34 106.44 394.02 105.82ZM403.72 108V102.37Q403.72 102 403.69 101.77Q403.66 101.53 403.6 101.39Q403.54 101.26 403.45 101.2Q403.36 101.15 403.23 101.15Q403.07 101.15 402.94 101.24Q402.81 101.34 402.66 101.55Q402.5 101.76 402.32 102.11Q402.14 102.45 401.89 102.96V108H400.65V102.52Q400.65 102.09 400.62 101.82Q400.59 101.55 400.53 101.41Q400.47 101.26 400.38 101.2Q400.29 101.15 400.15 101.15Q400.01 101.15 399.89 101.23Q399.76 101.3 399.61 101.51Q399.46 101.71 399.27 102.06Q399.08 102.41 398.82 102.96V108H397.57V100.16H398.61L398.68 101.65Q398.88 101.2 399.07 100.89Q399.26 100.58 399.47 100.39Q399.67 100.2 399.9 100.11Q400.13 100.02 400.41 100.02Q401.04 100.02 401.37 100.43Q401.7 100.84 401.7 101.71Q401.89 101.3 402.07 100.99Q402.25 100.67 402.45 100.46Q402.66 100.24 402.91 100.13Q403.16 100.02 403.49 100.02Q404.97 100.02 404.97 102.29V108ZM413.74 103.66Q413.74 103.95 413.74 104.15Q413.73 104.34 413.71 104.52H408.2Q408.2 105.72 408.88 106.36Q409.55 107.01 410.81 107.01Q411.16 107.01 411.5 106.98Q411.85 106.95 412.17 106.91Q412.49 106.86 412.78 106.8Q413.07 106.74 413.32 106.67V107.79Q412.77 107.95 412.07 108.04Q411.37 108.14 410.62 108.14Q409.61 108.14 408.88 107.87Q408.16 107.59 407.69 107.07Q407.23 106.55 407.01 105.8Q406.78 105.05 406.78 104.09Q406.78 103.27 407.02 102.53Q407.26 101.79 407.72 101.23Q408.17 100.67 408.84 100.34Q409.5 100.02 410.35 100.02Q411.17 100.02 411.8 100.27Q412.43 100.53 412.86 101Q413.3 101.48 413.52 102.15Q413.74 102.83 413.74 103.66ZM412.33 103.47Q412.35 102.95 412.23 102.51Q412.1 102.08 411.84 101.77Q411.58 101.45 411.19 101.28Q410.8 101.1 410.28 101.1Q409.84 101.1 409.47 101.27Q409.1 101.45 408.84 101.76Q408.57 102.07 408.41 102.51Q408.24 102.95 408.2 103.47ZM416.72 109.6Q417.12 109.62 417.5 109.53Q417.87 109.45 418.16 109.28Q418.44 109.11 418.62 108.86Q418.79 108.61 418.79 108.29Q418.79 107.96 418.67 107.76Q418.56 107.55 418.42 107.38Q418.28 107.21 418.17 107.02Q418.05 106.82 418.05 106.49Q418.05 106.33 418.12 106.15Q418.18 105.97 418.31 105.82Q418.44 105.67 418.64 105.58Q418.83 105.48 419.11 105.48Q419.38 105.48 419.64 105.6Q419.89 105.71 420.08 105.95Q420.27 106.18 420.39 106.53Q420.5 106.88 420.5 107.36Q420.5 108.01 420.26 108.61Q420.02 109.2 419.55 109.66Q419.08 110.12 418.37 110.4Q417.66 110.67 416.72 110.67Z" fill="#8b949e"/>
    <path d="M35.95 127.94Q35.95 128.98 35.66 129.77Q35.37 130.55 34.85 131.06Q34.34 131.58 33.63 131.84Q32.93 132.09 32.11 132.09Q31.73 132.09 31.36 132.05Q30.99 132.02 30.61 131.92V135.2H29.25V124.16H30.46L30.55 125.47Q31.13 124.66 31.8 124.34Q32.46 124.02 33.23 124.02Q33.91 124.02 34.41 124.3Q34.92 124.58 35.27 125.09Q35.61 125.6 35.78 126.32Q35.95 127.05 35.95 127.94ZM34.56 128Q34.56 127.38 34.47 126.87Q34.38 126.35 34.19 125.98Q33.99 125.62 33.69 125.41Q33.38 125.2 32.96 125.2Q32.7 125.2 32.44 125.29Q32.17 125.37 31.89 125.56Q31.6 125.75 31.29 126.07Q30.97 126.38 30.61 126.85V130.66Q30.98 130.81 31.4 130.9Q31.81 130.99 32.21 130.99Q33.31 130.99 33.94 130.25Q34.56 129.5 34.56 128ZM38.57 124.16H39.81L39.85 125.6Q40.54 124.77 41.22 124.39Q41.9 124.02 42.58 124.02Q43.8 124.02 44.43 124.8Q45.06 125.59 45.01 127.15H43.64Q43.66 126.12 43.34 125.65Q43.01 125.19 42.39 125.19Q42.11 125.19 41.84 125.29Q41.56 125.38 41.27 125.6Q40.97 125.81 40.65 126.15Q40.32 126.48 39.94 126.96V132H38.57ZM49.92 125.28H47.6V124.16H51.29V130.87H53.63V132H47.34V130.87H49.92ZM50.39 120.87Q50.62 120.87 50.81 120.95Q51.01 121.03 51.15 121.18Q51.3 121.33 51.38 121.52Q51.46 121.71 51.46 121.94Q51.46 122.16 51.38 122.35Q51.3 122.55 51.15 122.7Q51.01 122.84 50.81 122.93Q50.62 123.01 50.39 123.01Q50.17 123.01 49.97 122.93Q49.78 122.84 49.63 122.7Q49.49 122.55 49.4 122.35Q49.32 122.16 49.32 121.94Q49.32 121.71 49.4 121.52Q49.49 121.33 49.63 121.18Q49.78 121.03 49.97 120.95Q50.17 120.87 50.39 120.87ZM62.33 131.71Q61.8 131.91 61.24 132.01Q60.69 132.11 60.09 132.11Q58.23 132.11 57.23 131.1Q56.23 130.09 56.23 128.16Q56.23 127.23 56.51 126.47Q56.8 125.71 57.33 125.17Q57.85 124.63 58.58 124.34Q59.3 124.05 60.18 124.05Q60.79 124.05 61.32 124.13Q61.85 124.22 62.33 124.41V125.71Q61.83 125.45 61.3 125.32Q60.77 125.2 60.21 125.2Q59.69 125.2 59.22 125.4Q58.76 125.6 58.4 125.98Q58.05 126.35 57.85 126.89Q57.65 127.43 57.65 128.11Q57.65 129.53 58.34 130.24Q59.03 130.95 60.26 130.95Q60.81 130.95 61.33 130.82Q61.85 130.7 62.33 130.45ZM71.86 127.66Q71.86 127.95 71.85 128.15Q71.85 128.34 71.83 128.52H66.32Q66.32 129.72 67 130.36Q67.67 131.01 68.93 131.01Q69.28 131.01 69.62 130.98Q69.96 130.95 70.28 130.91Q70.6 130.86 70.9 130.8Q71.19 130.74 71.44 130.67V131.79Q70.89 131.95 70.19 132.04Q69.49 132.14 68.74 132.14Q67.73 132.14 67 131.87Q66.28 131.59 65.81 131.07Q65.35 130.55 65.12 129.8Q64.9 129.05 64.9 128.09Q64.9 127.27 65.14 126.53Q65.38 125.79 65.84 125.23Q66.29 124.67 66.96 124.34Q67.62 124.02 68.46 124.02Q69.28 124.02 69.92 124.27Q70.55 124.53 70.98 125Q71.42 125.48 71.64 126.15Q71.86 126.83 71.86 127.66ZM70.45 127.47Q70.47 126.95 70.35 126.51Q70.22 126.08 69.96 125.77Q69.7 125.45 69.31 125.28Q68.92 125.1 68.4 125.1Q67.96 125.1 67.59 125.27Q67.22 125.45 66.96 125.76Q66.69 126.07 66.53 126.51Q66.36 126.95 66.32 127.47ZM80.45 129.86Q80.45 130.27 80.3 130.6Q80.16 130.93 79.92 131.18Q79.68 131.44 79.36 131.62Q79.04 131.8 78.68 131.91Q78.31 132.03 77.93 132.09Q77.55 132.14 77.18 132.14Q76.38 132.14 75.71 132.07Q75.05 132 74.41 131.84V130.59Q75.09 130.79 75.77 130.89Q76.45 130.99 77.13 130.99Q78.1 130.99 78.57 130.73Q79.04 130.46 79.04 129.97Q79.04 129.76 78.96 129.59Q78.89 129.42 78.7 129.27Q78.5 129.12 78.09 128.95Q77.68 128.79 76.97 128.58Q76.44 128.42 75.99 128.22Q75.54 128.02 75.21 127.75Q74.88 127.48 74.7 127.11Q74.51 126.74 74.51 126.24Q74.51 125.91 74.66 125.52Q74.81 125.13 75.18 124.8Q75.55 124.46 76.17 124.24Q76.8 124.02 77.73 124.02Q78.2 124.02 78.76 124.07Q79.32 124.12 79.93 124.24V125.45Q79.29 125.3 78.71 125.22Q78.14 125.15 77.72 125.15Q77.21 125.15 76.86 125.23Q76.52 125.3 76.3 125.44Q76.09 125.58 75.99 125.76Q75.9 125.95 75.9 126.16Q75.9 126.37 75.98 126.54Q76.06 126.71 76.29 126.87Q76.51 127.03 76.91 127.19Q77.3 127.35 77.95 127.54Q78.64 127.74 79.12 127.96Q79.59 128.19 79.89 128.46Q80.19 128.73 80.32 129.08Q80.45 129.42 80.45 129.86ZM98.55 131.89Q98.09 132.01 97.6 132.06Q97.1 132.11 96.6 132.11Q95.12 132.11 94.39 131.44Q93.67 130.77 93.67 129.39V125.3H91.47V124.16H93.67V122L95.03 121.65V124.16H98.55V125.3H95.03V129.28Q95.03 130.12 95.47 130.54Q95.92 130.96 96.8 130.96Q97.17 130.96 97.62 130.9Q98.06 130.84 98.55 130.72ZM107.53 132H106.17V126.99Q106.17 126.09 105.83 125.64Q105.49 125.19 104.86 125.19Q104.58 125.19 104.35 125.26Q104.11 125.34 103.85 125.52Q103.59 125.7 103.29 126.02Q102.98 126.33 102.58 126.8V132H101.23V120.96H102.58V124.16L102.54 125.39Q102.86 125.01 103.17 124.75Q103.48 124.48 103.78 124.32Q104.09 124.16 104.41 124.09Q104.73 124.02 105.08 124.02Q106.25 124.02 106.89 124.73Q107.53 125.45 107.53 126.88ZM116.85 127.66Q116.85 127.95 116.84 128.15Q116.83 128.34 116.82 128.52H111.31Q111.31 129.72 111.98 130.36Q112.65 131.01 113.92 131.01Q114.26 131.01 114.6 130.98Q114.95 130.95 115.27 130.91Q115.59 130.86 115.88 130.8Q116.18 130.74 116.43 130.67V131.79Q115.87 131.95 115.17 132.04Q114.47 132.14 113.72 132.14Q112.71 132.14 111.99 131.87Q111.26 131.59 110.8 131.07Q110.33 130.55 110.11 129.8Q109.89 129.05 109.89 128.09Q109.89 127.27 110.12 126.53Q110.36 125.79 110.82 125.23Q111.28 124.67 111.94 124.34Q112.6 124.02 113.45 124.02Q114.27 124.02 114.9 124.27Q115.53 124.53 115.97 125Q116.4 125.48 116.62 126.15Q116.85 126.83 116.85 127.66ZM115.43 127.47Q115.46 126.95 115.33 126.51Q115.21 126.08 114.94 125.77Q114.68 125.45 114.29 125.28Q113.9 125.1 113.39 125.1Q112.94 125.1 112.57 125.27Q112.21 125.45 111.94 125.76Q111.68 126.07 111.51 126.51Q111.35 126.95 111.31 127.47ZM134.31 131.71Q133.78 131.91 133.22 132.01Q132.66 132.11 132.07 132.11Q130.21 132.11 129.2 131.1Q128.2 130.09 128.2 128.16Q128.2 127.23 128.49 126.47Q128.78 125.71 129.3 125.17Q129.83 124.63 130.55 124.34Q131.28 124.05 132.15 124.05Q132.76 124.05 133.29 124.13Q133.83 124.22 134.31 124.41V125.71Q133.8 125.45 133.27 125.32Q132.75 125.2 132.18 125.2Q131.66 125.2 131.2 125.4Q130.73 125.6 130.38 125.98Q130.03 126.35 129.83 126.89Q129.62 127.43 129.62 128.11Q129.62 129.53 130.31 130.24Q131 130.95 132.23 130.95Q132.79 130.95 133.31 130.82Q133.83 130.7 134.31 130.45ZM144.04 128.02Q144.04 128.93 143.78 129.69Q143.53 130.45 143.04 131Q142.56 131.54 141.86 131.84Q141.17 132.14 140.28 132.14Q139.44 132.14 138.77 131.88Q138.1 131.62 137.64 131.11Q137.17 130.6 136.93 129.85Q136.68 129.1 136.68 128.12Q136.68 127.21 136.94 126.46Q137.2 125.7 137.68 125.16Q138.17 124.62 138.86 124.32Q139.56 124.02 140.44 124.02Q141.28 124.02 141.95 124.28Q142.62 124.54 143.08 125.04Q143.55 125.55 143.79 126.3Q144.04 127.05 144.04 128.02ZM142.65 128.08Q142.65 127.35 142.49 126.81Q142.33 126.27 142.03 125.9Q141.74 125.54 141.31 125.36Q140.88 125.17 140.36 125.17Q139.75 125.17 139.32 125.41Q138.88 125.65 138.61 126.05Q138.33 126.45 138.2 126.97Q138.07 127.5 138.07 128.08Q138.07 128.8 138.23 129.35Q138.39 129.9 138.69 130.26Q138.99 130.62 139.41 130.81Q139.83 130.99 140.36 130.99Q140.97 130.99 141.4 130.75Q141.84 130.52 142.11 130.12Q142.39 129.72 142.52 129.19Q142.65 128.66 142.65 128.08ZM152.51 132H151.3L151.25 130.73Q150.9 131.14 150.58 131.41Q150.26 131.68 149.95 131.84Q149.64 132.01 149.32 132.07Q149.01 132.14 148.65 132.14Q147.44 132.14 146.83 131.43Q146.21 130.72 146.21 129.28V124.16H147.57V129.17Q147.57 130.98 148.93 130.98Q149.18 130.98 149.42 130.9Q149.65 130.83 149.92 130.64Q150.18 130.46 150.48 130.15Q150.78 129.84 151.15 129.36V124.16H152.51ZM155.53 124.16H156.77L156.81 125.6Q157.5 124.77 158.18 124.39Q158.85 124.02 159.54 124.02Q160.76 124.02 161.39 124.8Q162.02 125.59 161.97 127.15H160.6Q160.62 126.12 160.3 125.65Q159.97 125.19 159.35 125.19Q159.07 125.19 158.8 125.29Q158.52 125.38 158.23 125.6Q157.93 125.81 157.6 126.15Q157.28 126.48 156.9 126.96V132H155.53ZM170.41 129.86Q170.41 130.27 170.27 130.6Q170.13 130.93 169.89 131.18Q169.65 131.44 169.33 131.62Q169.01 131.8 168.64 131.91Q168.28 132.03 167.9 132.09Q167.52 132.14 167.15 132.14Q166.35 132.14 165.68 132.07Q165.02 132 164.38 131.84V130.59Q165.06 130.79 165.74 130.89Q166.42 130.99 167.09 130.99Q168.07 130.99 168.54 130.73Q169.01 130.46 169.01 129.97Q169.01 129.76 168.93 129.59Q168.86 129.42 168.66 129.27Q168.47 129.12 168.06 128.95Q167.65 128.79 166.94 128.58Q166.41 128.42 165.96 128.22Q165.51 128.02 165.18 127.75Q164.85 127.48 164.66 127.11Q164.48 126.74 164.48 126.24Q164.48 125.91 164.63 125.52Q164.78 125.13 165.15 124.8Q165.52 124.46 166.14 124.24Q166.77 124.02 167.7 124.02Q168.16 124.02 168.73 124.07Q169.29 124.12 169.9 124.24V125.45Q169.26 125.3 168.68 125.22Q168.11 125.15 167.69 125.15Q167.18 125.15 166.83 125.23Q166.48 125.3 166.27 125.44Q166.05 125.58 165.96 125.76Q165.87 125.95 165.87 126.16Q165.87 126.37 165.95 126.54Q166.03 126.71 166.25 126.87Q166.48 127.03 166.88 127.19Q167.27 127.35 167.91 127.54Q168.61 127.74 169.09 127.96Q169.56 128.19 169.86 128.46Q170.16 128.73 170.29 129.08Q170.41 129.42 170.41 129.86ZM179.82 127.66Q179.82 127.95 179.82 128.15Q179.81 128.34 179.79 128.52H174.29Q174.29 129.72 174.96 130.36Q175.63 131.01 176.9 131.01Q177.24 131.01 177.58 130.98Q177.93 130.95 178.25 130.91Q178.57 130.86 178.86 130.8Q179.15 130.74 179.4 130.67V131.79Q178.85 131.95 178.15 132.04Q177.45 132.14 176.7 132.14Q175.69 132.14 174.97 131.87Q174.24 131.59 173.77 131.07Q173.31 130.55 173.09 129.8Q172.86 129.05 172.86 128.09Q172.86 127.27 173.1 126.53Q173.34 125.79 173.8 125.23Q174.25 124.67 174.92 124.34Q175.58 124.02 176.43 124.02Q177.25 124.02 177.88 124.27Q178.51 124.53 178.95 125Q179.38 125.48 179.6 126.15Q179.82 126.83 179.82 127.66ZM178.41 127.47Q178.43 126.95 178.31 126.51Q178.18 126.08 177.92 125.77Q177.66 125.45 177.27 125.28Q176.88 125.1 176.36 125.1Q175.92 125.1 175.55 125.27Q175.18 125.45 174.92 125.76Q174.65 126.07 174.49 126.51Q174.32 126.95 174.29 127.47ZM182.81 133.6Q183.2 133.62 183.58 133.53Q183.95 133.45 184.24 133.28Q184.52 133.11 184.7 132.86Q184.87 132.61 184.87 132.29Q184.87 131.96 184.76 131.76Q184.64 131.55 184.5 131.38Q184.36 131.21 184.25 131.02Q184.13 130.82 184.13 130.49Q184.13 130.33 184.2 130.15Q184.26 129.97 184.39 129.82Q184.52 129.67 184.72 129.58Q184.92 129.48 185.19 129.48Q185.46 129.48 185.72 129.6Q185.97 129.71 186.16 129.95Q186.35 130.18 186.47 130.53Q186.58 130.88 186.58 131.36Q186.58 132.01 186.34 132.61Q186.1 133.2 185.63 133.66Q185.16 134.12 184.45 134.4Q183.74 134.67 182.81 134.67ZM200.51 124.16H201.75L201.79 125.6Q202.49 124.77 203.16 124.39Q203.84 124.02 204.53 124.02Q205.75 124.02 206.37 124.8Q207 125.59 206.96 127.15H205.58Q205.6 126.12 205.28 125.65Q204.96 125.19 204.33 125.19Q204.06 125.19 203.78 125.29Q203.5 125.38 203.21 125.6Q202.92 125.81 202.59 126.15Q202.26 126.48 201.89 126.96V132H200.51ZM215.81 127.66Q215.81 127.95 215.8 128.15Q215.8 128.34 215.78 128.52H210.27Q210.27 129.72 210.95 130.36Q211.62 131.01 212.88 131.01Q213.23 131.01 213.57 130.98Q213.91 130.95 214.23 130.91Q214.55 130.86 214.85 130.8Q215.14 130.74 215.39 130.67V131.79Q214.84 131.95 214.14 132.04Q213.44 132.14 212.69 132.14Q211.68 132.14 210.95 131.87Q210.23 131.59 209.76 131.07Q209.3 130.55 209.07 129.8Q208.85 129.05 208.85 128.09Q208.85 127.27 209.09 126.53Q209.33 125.79 209.79 125.23Q210.24 124.67 210.91 124.34Q211.57 124.02 212.41 124.02Q213.23 124.02 213.87 124.27Q214.5 124.53 214.93 125Q215.37 125.48 215.59 126.15Q215.81 126.83 215.81 127.66ZM214.4 127.47Q214.42 126.95 214.3 126.51Q214.17 126.08 213.91 125.77Q213.65 125.45 213.26 125.28Q212.87 125.1 212.35 125.1Q211.91 125.1 211.54 125.27Q211.17 125.45 210.91 125.76Q210.64 126.07 210.48 126.51Q210.31 126.95 210.27 127.47ZM225.15 122.23Q224.07 122 223.3 122Q221.47 122 221.47 123.92V125.3H224.9V126.43H221.47V132H220.08V126.43H217.56V125.3H220.08V124Q220.08 120.87 223.35 120.87Q224.16 120.87 225.15 121.05ZM216.93 124.16ZM233.49 132H232.27L232.22 130.73Q231.87 131.14 231.55 131.41Q231.24 131.68 230.92 131.84Q230.61 132.01 230.29 132.07Q229.98 132.14 229.63 132.14Q228.42 132.14 227.8 131.43Q227.18 130.72 227.18 129.28V124.16H228.54V129.17Q228.54 130.98 229.9 130.98Q230.15 130.98 230.39 130.9Q230.63 130.83 230.89 130.64Q231.15 130.46 231.45 130.15Q231.75 129.84 232.13 129.36V124.16H233.49ZM242.39 129.86Q242.39 130.27 242.25 130.6Q242.11 130.93 241.87 131.18Q241.62 131.44 241.3 131.62Q240.98 131.8 240.62 131.91Q240.26 132.03 239.87 132.09Q239.49 132.14 239.12 132.14Q238.33 132.14 237.66 132.07Q236.99 132 236.35 131.84V130.59Q237.04 130.79 237.72 130.89Q238.4 130.99 239.07 130.99Q240.05 130.99 240.51 130.73Q240.98 130.46 240.98 129.97Q240.98 129.76 240.91 129.59Q240.83 129.42 240.64 129.27Q240.44 129.12 240.03 128.95Q239.62 128.79 238.91 128.58Q238.38 128.42 237.93 128.22Q237.48 128.02 237.15 127.75Q236.83 127.48 236.64 127.11Q236.45 126.74 236.45 126.24Q236.45 125.91 236.6 125.52Q236.76 125.13 237.12 124.8Q237.49 124.46 238.12 124.24Q238.74 124.02 239.68 124.02Q240.14 124.02 240.7 124.07Q241.26 124.12 241.87 124.24V125.45Q241.23 125.3 240.66 125.22Q240.08 125.15 239.66 125.15Q239.15 125.15 238.81 125.23Q238.46 125.3 238.24 125.44Q238.03 125.58 237.94 125.76Q237.84 125.95 237.84 126.16Q237.84 126.37 237.92 126.54Q238.01 126.71 238.23 126.87Q238.45 127.03 238.85 127.19Q239.25 127.35 239.89 127.54Q240.58 127.74 241.06 127.96Q241.54 128.19 241.83 128.46Q242.13 128.73 242.26 129.08Q242.39 129.42 242.39 129.86ZM251.8 127.66Q251.8 127.95 251.79 128.15Q251.78 128.34 251.77 128.52H246.26Q246.26 129.72 246.93 130.36Q247.6 131.01 248.87 131.01Q249.21 131.01 249.56 130.98Q249.9 130.95 250.22 130.91Q250.54 130.86 250.84 130.8Q251.13 130.74 251.38 130.67V131.79Q250.82 131.95 250.12 132.04Q249.42 132.14 248.67 132.14Q247.67 132.14 246.94 131.87Q246.21 131.59 245.75 131.07Q245.28 130.55 245.06 129.8Q244.84 129.05 244.84 128.09Q244.84 127.27 245.08 126.53Q245.32 125.79 245.77 125.23Q246.23 124.67 246.89 124.34Q247.56 124.02 248.4 124.02Q249.22 124.02 249.85 124.27Q250.49 124.53 250.92 125Q251.35 125.48 251.58 126.15Q251.8 126.83 251.8 127.66ZM250.39 127.47Q250.41 126.95 250.28 126.51Q250.16 126.08 249.9 125.77Q249.64 125.45 249.25 125.28Q248.85 125.1 248.34 125.1Q247.89 125.1 247.53 125.27Q247.16 125.45 246.89 125.76Q246.63 126.07 246.46 126.51Q246.3 126.95 246.26 127.47ZM260.38 129.86Q260.38 130.27 260.24 130.6Q260.1 130.93 259.86 131.18Q259.62 131.44 259.3 131.62Q258.98 131.8 258.61 131.91Q258.25 132.03 257.87 132.09Q257.48 132.14 257.12 132.14Q256.32 132.14 255.65 132.07Q254.98 132 254.34 131.84V130.59Q255.03 130.79 255.71 130.89Q256.39 130.99 257.06 130.99Q258.04 130.99 258.51 130.73Q258.98 130.46 258.98 129.97Q258.98 129.76 258.9 129.59Q258.83 129.42 258.63 129.27Q258.44 129.12 258.03 128.95Q257.62 128.79 256.91 128.58Q256.37 128.42 255.93 128.22Q255.48 128.02 255.15 127.75Q254.82 127.48 254.63 127.11Q254.45 126.74 254.45 126.24Q254.45 125.91 254.6 125.52Q254.75 125.13 255.12 124.8Q255.48 124.46 256.11 124.24Q256.73 124.02 257.67 124.02Q258.13 124.02 258.7 124.07Q259.26 124.12 259.87 124.24V125.45Q259.23 125.3 258.65 125.22Q258.08 125.15 257.66 125.15Q257.15 125.15 256.8 125.23Q256.45 125.3 256.24 125.44Q256.02 125.58 255.93 125.76Q255.84 125.95 255.84 126.16Q255.84 126.37 255.92 126.54Q256 126.71 256.22 126.87Q256.45 127.03 256.84 127.19Q257.24 127.35 257.88 127.54Q258.58 127.74 259.05 127.96Q259.53 128.19 259.83 128.46Q260.12 128.73 260.25 129.08Q260.38 129.42 260.38 129.86ZM278.47 132H277.25L277.2 130.73Q276.85 131.14 276.54 131.41Q276.22 131.68 275.91 131.84Q275.6 132.01 275.28 132.07Q274.96 132.14 274.61 132.14Q273.4 132.14 272.78 131.43Q272.17 130.72 272.17 129.28V124.16H273.52V129.17Q273.52 130.98 274.88 130.98Q275.13 130.98 275.37 130.9Q275.61 130.83 275.87 130.64Q276.13 130.46 276.44 130.15Q276.74 129.84 277.11 129.36V124.16H278.47ZM281.16 124.16H282.37L282.43 125.42Q282.77 125.02 283.09 124.75Q283.41 124.48 283.72 124.31Q284.03 124.15 284.35 124.08Q284.67 124.02 285.01 124.02Q286.22 124.02 286.85 124.73Q287.47 125.45 287.47 126.88V132H286.11V126.99Q286.11 126.07 285.76 125.63Q285.42 125.19 284.74 125.19Q284.49 125.19 284.25 125.26Q284.01 125.34 283.76 125.52Q283.5 125.7 283.2 126.02Q282.9 126.33 282.52 126.8V132H281.16ZM296.37 129.86Q296.37 130.27 296.23 130.6Q296.09 130.93 295.85 131.18Q295.6 131.44 295.28 131.62Q294.96 131.8 294.6 131.91Q294.24 132.03 293.85 132.09Q293.47 132.14 293.1 132.14Q292.31 132.14 291.64 132.07Q290.97 132 290.33 131.84V130.59Q291.02 130.79 291.7 130.89Q292.38 130.99 293.05 130.99Q294.03 130.99 294.5 130.73Q294.96 130.46 294.96 129.97Q294.96 129.76 294.89 129.59Q294.82 129.42 294.62 129.27Q294.42 129.12 294.01 128.95Q293.6 128.79 292.89 128.58Q292.36 128.42 291.91 128.22Q291.46 128.02 291.14 127.75Q290.81 127.48 290.62 127.11Q290.43 126.74 290.43 126.24Q290.43 125.91 290.59 125.52Q290.74 125.13 291.1 124.8Q291.47 124.46 292.1 124.24Q292.72 124.02 293.66 124.02Q294.12 124.02 294.68 124.07Q295.25 124.12 295.85 124.24V125.45Q295.21 125.3 294.64 125.22Q294.07 125.15 293.64 125.15Q293.14 125.15 292.79 125.23Q292.44 125.3 292.23 125.44Q292.01 125.58 291.92 125.76Q291.82 125.95 291.82 126.16Q291.82 126.37 291.91 126.54Q291.99 126.71 292.21 126.87Q292.43 127.03 292.83 127.19Q293.23 127.35 293.87 127.54Q294.57 127.74 295.04 127.96Q295.52 128.19 295.82 128.46Q296.11 128.73 296.24 129.08Q296.37 129.42 296.37 129.86ZM304.2 132 304.16 130.95Q303.52 131.58 302.86 131.86Q302.2 132.14 301.48 132.14Q300.8 132.14 300.33 131.97Q299.85 131.8 299.54 131.5Q299.23 131.2 299.09 130.79Q298.95 130.38 298.95 129.91Q298.95 128.73 299.82 128.06Q300.7 127.39 302.42 127.39H304.05V126.7Q304.05 126.01 303.6 125.59Q303.16 125.17 302.24 125.17Q301.58 125.17 300.93 125.32Q300.29 125.47 299.6 125.74V124.52Q299.86 124.42 300.18 124.33Q300.49 124.24 300.84 124.17Q301.2 124.1 301.58 124.06Q301.96 124.02 302.35 124.02Q303.06 124.02 303.63 124.17Q304.2 124.33 304.6 124.65Q304.99 124.97 305.2 125.45Q305.41 125.94 305.41 126.59V132ZM304.05 128.43H302.32Q301.81 128.43 301.45 128.53Q301.08 128.63 300.84 128.82Q300.61 129.01 300.5 129.27Q300.38 129.53 300.38 129.86Q300.38 130.09 300.45 130.29Q300.52 130.5 300.68 130.66Q300.84 130.82 301.09 130.91Q301.34 131.01 301.7 131.01Q302.16 131.01 302.77 130.72Q303.37 130.44 304.05 129.82ZM315.11 122.23Q314.04 122 313.27 122Q311.43 122 311.43 123.92V125.3H314.87V126.43H311.43V132H310.05V126.43H307.53V125.3H310.05V124Q310.05 120.87 313.32 120.87Q314.13 120.87 315.11 121.05ZM306.9 124.16ZM323.77 127.66Q323.77 127.95 323.77 128.15Q323.76 128.34 323.74 128.52H318.24Q318.24 129.72 318.91 130.36Q319.58 131.01 320.85 131.01Q321.19 131.01 321.53 130.98Q321.88 130.95 322.2 130.91Q322.52 130.86 322.81 130.8Q323.1 130.74 323.35 130.67V131.79Q322.8 131.95 322.1 132.04Q321.4 132.14 320.65 132.14Q319.64 132.14 318.92 131.87Q318.19 131.59 317.72 131.07Q317.26 130.55 317.04 129.8Q316.81 129.05 316.81 128.09Q316.81 127.27 317.05 126.53Q317.29 125.79 317.75 125.23Q318.2 124.67 318.87 124.34Q319.53 124.02 320.38 124.02Q321.2 124.02 321.83 124.27Q322.46 124.53 322.9 125Q323.33 125.48 323.55 126.15Q323.77 126.83 323.77 127.66ZM322.36 127.47Q322.38 126.95 322.26 126.51Q322.13 126.08 321.87 125.77Q321.61 125.45 321.22 125.28Q320.83 125.1 320.31 125.1Q319.87 125.1 319.5 125.27Q319.13 125.45 318.87 125.76Q318.6 126.07 318.44 126.51Q318.27 126.95 318.24 127.47ZM341.35 129.86Q341.35 130.27 341.21 130.6Q341.07 130.93 340.83 131.18Q340.59 131.44 340.27 131.62Q339.95 131.8 339.59 131.91Q339.22 132.03 338.84 132.09Q338.46 132.14 338.09 132.14Q337.29 132.14 336.62 132.07Q335.96 132 335.32 131.84V130.59Q336 130.79 336.68 130.89Q337.36 130.99 338.03 130.99Q339.01 130.99 339.48 130.73Q339.95 130.46 339.95 129.97Q339.95 129.76 339.87 129.59Q339.8 129.42 339.6 129.27Q339.41 129.12 339 128.95Q338.59 128.79 337.88 128.58Q337.35 128.42 336.9 128.22Q336.45 128.02 336.12 127.75Q335.79 127.48 335.6 127.11Q335.42 126.74 335.42 126.24Q335.42 125.91 335.57 125.52Q335.72 125.13 336.09 124.8Q336.46 124.46 337.08 124.24Q337.71 124.02 338.64 124.02Q339.1 124.02 339.67 124.07Q340.23 124.12 340.84 124.24V125.45Q340.2 125.3 339.62 125.22Q339.05 125.15 338.63 125.15Q338.12 125.15 337.77 125.23Q337.42 125.3 337.21 125.44Q337 125.58 336.9 125.76Q336.81 125.95 336.81 126.16Q336.81 126.37 336.89 126.54Q336.97 126.71 337.19 126.87Q337.42 127.03 337.82 127.19Q338.21 127.35 338.85 127.54Q339.55 127.74 340.03 127.96Q340.5 128.19 340.8 128.46Q341.1 128.73 341.23 129.08Q341.35 129.42 341.35 129.86ZM351.41 124.16 350.27 132H348.62L347.48 128.72L347.26 127.92L347 128.77L345.91 132H344.31L343.18 124.16H344.51L345.16 129.48L345.3 130.67L345.64 129.63L346.78 126.11H347.76L348.98 129.59L349.34 130.62L349.45 129.52L350.06 124.16ZM358.18 132 358.15 130.95Q357.5 131.58 356.84 131.86Q356.18 132.14 355.46 132.14Q354.79 132.14 354.31 131.97Q353.83 131.8 353.52 131.5Q353.22 131.2 353.07 130.79Q352.93 130.38 352.93 129.91Q352.93 128.73 353.81 128.06Q354.68 127.39 356.4 127.39H358.03V126.7Q358.03 126.01 357.58 125.59Q357.14 125.17 356.22 125.17Q355.56 125.17 354.91 125.32Q354.27 125.47 353.58 125.74V124.52Q353.84 124.42 354.16 124.33Q354.47 124.24 354.82 124.17Q355.18 124.1 355.56 124.06Q355.94 124.02 356.33 124.02Q357.04 124.02 357.61 124.17Q358.18 124.33 358.58 124.65Q358.97 124.97 359.18 125.45Q359.4 125.94 359.4 126.59V132ZM358.03 128.43H356.3Q355.79 128.43 355.43 128.53Q355.06 128.63 354.82 128.82Q354.59 129.01 354.48 129.27Q354.36 129.53 354.36 129.86Q354.36 130.09 354.43 130.29Q354.5 130.5 354.66 130.66Q354.82 130.82 355.07 130.91Q355.32 131.01 355.68 131.01Q356.15 131.01 356.75 130.72Q357.36 130.44 358.03 129.82ZM368.84 127.94Q368.84 128.98 368.54 129.77Q368.25 130.55 367.74 131.06Q367.22 131.58 366.52 131.84Q365.81 132.09 364.99 132.09Q364.62 132.09 364.25 132.05Q363.88 132.02 363.49 131.92V135.2H362.13V124.16H363.35L363.43 125.47Q364.02 124.66 364.68 124.34Q365.35 124.02 366.12 124.02Q366.79 124.02 367.3 124.3Q367.81 124.58 368.15 125.09Q368.49 125.6 368.67 126.32Q368.84 127.05 368.84 127.94ZM367.45 128Q367.45 127.38 367.36 126.87Q367.27 126.35 367.07 125.98Q366.88 125.62 366.57 125.41Q366.27 125.2 365.85 125.2Q365.59 125.2 365.32 125.29Q365.06 125.37 364.77 125.56Q364.49 125.75 364.17 126.07Q363.85 126.38 363.49 126.85V130.66Q363.87 130.81 364.28 130.9Q364.7 130.99 365.1 130.99Q366.2 130.99 366.82 130.25Q367.45 129.5 367.45 128ZM377.34 129.86Q377.34 130.27 377.2 130.6Q377.06 130.93 376.82 131.18Q376.58 131.44 376.26 131.62Q375.94 131.8 375.57 131.91Q375.21 132.03 374.83 132.09Q374.44 132.14 374.08 132.14Q373.28 132.14 372.61 132.07Q371.94 132 371.3 131.84V130.59Q371.99 130.79 372.67 130.89Q373.35 130.99 374.02 130.99Q375 130.99 375.47 130.73Q375.94 130.46 375.94 129.97Q375.94 129.76 375.86 129.59Q375.79 129.42 375.59 129.27Q375.4 129.12 374.99 128.95Q374.58 128.79 373.87 128.58Q373.33 128.42 372.89 128.22Q372.44 128.02 372.11 127.75Q371.78 127.48 371.59 127.11Q371.4 126.74 371.4 126.24Q371.4 125.91 371.56 125.52Q371.71 125.13 372.08 124.8Q372.44 124.46 373.07 124.24Q373.69 124.02 374.63 124.02Q375.09 124.02 375.65 124.07Q376.22 124.12 376.83 124.24V125.45Q376.19 125.3 375.61 125.22Q375.04 125.15 374.62 125.15Q374.11 125.15 373.76 125.23Q373.41 125.3 373.2 125.44Q372.98 125.58 372.89 125.76Q372.8 125.95 372.8 126.16Q372.8 126.37 372.88 126.54Q372.96 126.71 373.18 126.87Q373.4 127.03 373.8 127.19Q374.2 127.35 374.84 127.54Q375.54 127.74 376.01 127.96Q376.49 128.19 376.79 128.46Q377.08 128.73 377.21 129.08Q377.34 129.42 377.34 129.86ZM383.21 129.54Q383.48 129.54 383.72 129.64Q383.96 129.74 384.13 129.92Q384.31 130.1 384.41 130.34Q384.51 130.58 384.51 130.85Q384.51 131.12 384.41 131.35Q384.31 131.59 384.13 131.76Q383.96 131.94 383.72 132.04Q383.48 132.14 383.21 132.14Q382.94 132.14 382.71 132.04Q382.47 131.94 382.3 131.76Q382.12 131.59 382.02 131.35Q381.92 131.12 381.92 130.85Q381.92 130.58 382.02 130.34Q382.12 130.1 382.3 129.92Q382.47 129.74 382.71 129.64Q382.94 129.54 383.21 129.54Z" fill="#8b949e"/>
    <circle cx="34" cy="171" r="6" fill="#f1e05a"/>
    <path d="M53.57 167.2V172.97Q53.57 173.5 53.41 173.98Q53.25 174.46 52.93 174.81Q52.6 175.17 52.11 175.38Q51.62 175.59 50.96 175.59Q50.72 175.59 50.46 175.55Q50.2 175.52 49.96 175.46Q49.73 175.4 49.52 175.31Q49.31 175.23 49.16 175.13V173.99Q49.55 174.27 50.03 174.44Q50.51 174.6 50.98 174.6Q51.67 174.6 52.04 174.18Q52.42 173.76 52.42 172.97V168.18H49.26V167.2ZM60.86 175.5 60.83 174.64Q60.31 175.16 59.78 175.39Q59.24 175.61 58.65 175.61Q58.1 175.61 57.72 175.47Q57.33 175.33 57.08 175.09Q56.83 174.85 56.71 174.52Q56.59 174.19 56.59 173.8Q56.59 172.84 57.31 172.3Q58.02 171.75 59.42 171.75H60.74V171.2Q60.74 170.63 60.37 170.29Q60.01 169.95 59.27 169.95Q58.73 169.95 58.21 170.07Q57.68 170.19 57.12 170.42V169.42Q57.33 169.34 57.59 169.27Q57.85 169.2 58.13 169.14Q58.42 169.08 58.73 169.05Q59.04 169.01 59.36 169.01Q59.94 169.01 60.4 169.14Q60.86 169.27 61.18 169.53Q61.5 169.79 61.68 170.18Q61.85 170.57 61.85 171.11V175.5ZM60.74 172.6H59.33Q58.92 172.6 58.62 172.68Q58.32 172.76 58.13 172.92Q57.94 173.07 57.85 173.28Q57.76 173.49 57.76 173.76Q57.76 173.94 57.82 174.11Q57.87 174.28 58 174.41Q58.13 174.54 58.33 174.62Q58.53 174.69 58.83 174.69Q59.21 174.69 59.7 174.46Q60.19 174.23 60.74 173.73ZM63.91 169.13H65.17L66.73 173.34L67.07 174.37L67.42 173.32L68.97 169.13H70.18L67.68 175.5H66.41ZM76.35 175.5 76.33 174.64Q75.81 175.16 75.27 175.39Q74.73 175.61 74.14 175.61Q73.6 175.61 73.21 175.47Q72.82 175.33 72.57 175.09Q72.32 174.85 72.2 174.52Q72.09 174.19 72.09 173.8Q72.09 172.84 72.8 172.3Q73.51 171.75 74.91 171.75H76.23V171.2Q76.23 170.63 75.87 170.29Q75.51 169.95 74.77 169.95Q74.23 169.95 73.7 170.07Q73.18 170.19 72.62 170.42V169.42Q72.83 169.34 73.09 169.27Q73.34 169.2 73.63 169.14Q73.91 169.08 74.23 169.05Q74.54 169.01 74.85 169.01Q75.43 169.01 75.9 169.14Q76.36 169.27 76.68 169.53Q77 169.79 77.17 170.18Q77.34 170.57 77.34 171.11V175.5ZM76.23 172.6H74.83Q74.42 172.6 74.12 172.68Q73.82 172.76 73.63 172.92Q73.44 173.07 73.35 173.28Q73.25 173.49 73.25 173.76Q73.25 173.94 73.31 174.11Q73.37 174.28 73.5 174.41Q73.62 174.54 73.83 174.62Q74.03 174.69 74.32 174.69Q74.7 174.69 75.19 174.46Q75.69 174.23 76.23 173.73ZM85.32 173.25Q85.32 173.84 85.08 174.29Q84.84 174.73 84.4 175.03Q83.97 175.32 83.37 175.47Q82.76 175.61 82.03 175.61Q81.7 175.61 81.37 175.59Q81.05 175.56 80.74 175.53Q80.44 175.49 80.18 175.44Q79.91 175.39 79.69 175.33V174.24Q80.17 174.41 80.76 174.52Q81.36 174.62 82.11 174.62Q82.66 174.62 83.04 174.53Q83.43 174.45 83.67 174.28Q83.92 174.11 84.03 173.87Q84.14 173.63 84.14 173.32Q84.14 172.98 83.95 172.74Q83.76 172.5 83.46 172.32Q83.15 172.13 82.76 171.97Q82.37 171.82 81.97 171.65Q81.56 171.49 81.17 171.29Q80.78 171.1 80.48 170.84Q80.17 170.57 79.98 170.22Q79.8 169.86 79.8 169.37Q79.8 168.95 79.97 168.54Q80.15 168.12 80.53 167.8Q80.9 167.48 81.49 167.29Q82.07 167.09 82.89 167.09Q83.1 167.09 83.34 167.11Q83.59 167.13 83.84 167.16Q84.09 167.2 84.33 167.24Q84.58 167.29 84.79 167.34V168.35Q84.3 168.21 83.81 168.14Q83.32 168.07 82.86 168.07Q81.89 168.07 81.43 168.39Q80.98 168.71 80.98 169.26Q80.98 169.6 81.16 169.84Q81.35 170.08 81.66 170.27Q81.96 170.46 82.35 170.62Q82.74 170.77 83.15 170.94Q83.55 171.1 83.94 171.3Q84.33 171.49 84.64 171.76Q84.94 172.03 85.13 172.4Q85.32 172.76 85.32 173.25ZM92.7 175.27Q92.27 175.43 91.82 175.51Q91.36 175.59 90.88 175.59Q89.37 175.59 88.56 174.77Q87.74 173.95 87.74 172.38Q87.74 171.62 87.98 171.01Q88.21 170.39 88.64 169.95Q89.06 169.51 89.65 169.28Q90.24 169.04 90.95 169.04Q91.45 169.04 91.88 169.11Q92.31 169.18 92.7 169.34V170.39Q92.29 170.17 91.86 170.08Q91.43 169.98 90.98 169.98Q90.55 169.98 90.17 170.14Q89.8 170.3 89.51 170.61Q89.23 170.91 89.06 171.35Q88.9 171.79 88.9 172.34Q88.9 173.49 89.46 174.07Q90.02 174.64 91.02 174.64Q91.47 174.64 91.89 174.54Q92.31 174.44 92.7 174.24ZM95.76 169.13H96.77L96.8 170.3Q97.37 169.62 97.92 169.32Q98.46 169.01 99.02 169.01Q100.01 169.01 100.52 169.65Q101.04 170.29 101 171.56H99.88Q99.9 170.72 99.64 170.34Q99.37 169.96 98.86 169.96Q98.64 169.96 98.42 170.04Q98.19 170.12 97.95 170.3Q97.72 170.47 97.45 170.75Q97.18 171.02 96.88 171.41V175.5H95.76ZM105.42 170.04H103.53V169.13H106.54V174.58H108.43V175.5H103.32V174.58H105.42ZM105.81 166.45Q105.99 166.45 106.15 166.52Q106.31 166.59 106.42 166.71Q106.54 166.83 106.61 166.98Q106.68 167.14 106.68 167.32Q106.68 167.5 106.61 167.66Q106.54 167.82 106.42 167.94Q106.31 168.06 106.15 168.13Q105.99 168.19 105.81 168.19Q105.62 168.19 105.46 168.13Q105.3 168.06 105.19 167.94Q105.07 167.82 105 167.66Q104.94 167.5 104.94 167.32Q104.94 167.14 105 166.98Q105.07 166.83 105.19 166.71Q105.3 166.59 105.46 166.52Q105.62 166.45 105.81 166.45ZM116.44 172.2Q116.44 173.05 116.2 173.68Q115.97 174.32 115.55 174.74Q115.13 175.16 114.56 175.37Q113.99 175.58 113.32 175.58Q113.01 175.58 112.71 175.54Q112.41 175.51 112.1 175.44V178.1H111V169.13H111.98L112.05 170.19Q112.53 169.54 113.06 169.28Q113.6 169.01 114.23 169.01Q114.78 169.01 115.19 169.24Q115.6 169.47 115.88 169.89Q116.16 170.3 116.3 170.89Q116.44 171.48 116.44 172.2ZM115.31 172.25Q115.31 171.75 115.24 171.33Q115.17 170.91 115.01 170.61Q114.85 170.31 114.6 170.15Q114.35 169.98 114.01 169.98Q113.8 169.98 113.59 170.04Q113.37 170.11 113.14 170.27Q112.91 170.42 112.65 170.68Q112.39 170.94 112.1 171.32V174.41Q112.4 174.54 112.74 174.61Q113.08 174.68 113.4 174.68Q114.3 174.68 114.8 174.07Q115.31 173.47 115.31 172.25ZM123.88 175.41Q123.5 175.51 123.1 175.55Q122.7 175.59 122.29 175.59Q121.09 175.59 120.5 175.05Q119.91 174.5 119.91 173.38V170.05H118.13V169.13H119.91V167.38L121.02 167.09V169.13H123.88V170.05H121.02V173.29Q121.02 173.98 121.38 174.32Q121.75 174.66 122.46 174.66Q122.76 174.66 123.12 174.61Q123.48 174.56 123.88 174.46Z" fill="#6b737c"/>
    <path d="M140.45 170.85Q140.66 170.85 140.86 170.93Q141.05 171.02 141.19 171.16Q141.34 171.3 141.42 171.5Q141.5 171.7 141.5 171.91Q141.5 172.13 141.42 172.32Q141.34 172.51 141.19 172.65Q141.05 172.8 140.86 172.88Q140.66 172.97 140.45 172.97Q140.23 172.97 140.04 172.88Q139.85 172.8 139.7 172.65Q139.56 172.51 139.48 172.32Q139.39 172.13 139.39 171.91Q139.39 171.7 139.48 171.5Q139.56 171.3 139.7 171.16Q139.85 171.02 140.04 170.93Q140.23 170.85 140.45 170.85ZM166.52 175.5H165.04L162.62 170.33L161.93 168.66V172.85V175.5H160.87V167.2H162.33L164.63 172.1L165.46 174V169.56V167.2H166.52ZM174.43 172.26Q174.43 173.01 174.22 173.62Q174.01 174.24 173.62 174.68Q173.22 175.13 172.66 175.37Q172.09 175.61 171.37 175.61Q170.69 175.61 170.15 175.4Q169.6 175.19 169.23 174.78Q168.85 174.36 168.65 173.75Q168.45 173.15 168.45 172.35Q168.45 171.61 168.66 171Q168.87 170.38 169.26 169.94Q169.65 169.5 170.22 169.26Q170.78 169.01 171.5 169.01Q172.19 169.01 172.73 169.23Q173.27 169.44 173.65 169.85Q174.03 170.26 174.23 170.87Q174.43 171.48 174.43 172.26ZM173.3 172.31Q173.3 171.72 173.17 171.28Q173.04 170.84 172.8 170.55Q172.56 170.25 172.21 170.1Q171.86 169.95 171.44 169.95Q170.94 169.95 170.59 170.15Q170.24 170.34 170.01 170.66Q169.79 170.99 169.68 171.42Q169.58 171.84 169.58 172.31Q169.58 172.9 169.71 173.35Q169.84 173.79 170.08 174.09Q170.32 174.38 170.66 174.53Q171.01 174.68 171.44 174.68Q171.93 174.68 172.29 174.49Q172.64 174.29 172.86 173.97Q173.09 173.65 173.19 173.22Q173.3 172.79 173.3 172.31ZM176.3 172.45Q176.3 171.63 176.53 171Q176.75 170.37 177.16 169.94Q177.57 169.5 178.14 169.28Q178.72 169.05 179.42 169.05Q179.73 169.05 180.02 169.09Q180.32 169.13 180.6 169.21V166.53H181.71V175.5H180.72L180.68 174.29Q180.22 174.97 179.68 175.29Q179.14 175.61 178.51 175.61Q177.97 175.61 177.55 175.39Q177.14 175.16 176.86 174.74Q176.58 174.33 176.44 173.74Q176.3 173.16 176.3 172.45ZM177.43 172.38Q177.43 173.53 177.77 174.1Q178.11 174.67 178.73 174.67Q179.15 174.67 179.62 174.29Q180.09 173.92 180.6 173.18V170.23Q180.33 170.1 180 170.03Q179.67 169.96 179.34 169.96Q178.44 169.96 177.94 170.55Q177.43 171.13 177.43 172.38ZM189.76 171.98Q189.76 172.21 189.75 172.37Q189.75 172.53 189.73 172.67H185.26Q185.26 173.65 185.8 174.17Q186.35 174.69 187.38 174.69Q187.66 174.69 187.94 174.67Q188.22 174.65 188.48 174.61Q188.74 174.57 188.97 174.53Q189.21 174.48 189.42 174.42V175.33Q188.96 175.46 188.4 175.53Q187.83 175.61 187.22 175.61Q186.4 175.61 185.81 175.39Q185.22 175.17 184.84 174.75Q184.46 174.33 184.28 173.71Q184.1 173.1 184.1 172.33Q184.1 171.65 184.3 171.05Q184.49 170.45 184.86 170Q185.23 169.55 185.77 169.28Q186.31 169.01 187 169.01Q187.66 169.01 188.18 169.22Q188.69 169.43 189.04 169.82Q189.4 170.2 189.58 170.75Q189.76 171.3 189.76 171.98ZM188.61 171.82Q188.63 171.39 188.53 171.04Q188.42 170.69 188.21 170.43Q188 170.18 187.68 170.04Q187.36 169.9 186.95 169.9Q186.58 169.9 186.29 170.03Q185.99 170.17 185.77 170.43Q185.56 170.68 185.42 171.04Q185.29 171.39 185.26 171.82ZM202.43 170.85Q202.64 170.85 202.84 170.93Q203.03 171.02 203.17 171.16Q203.32 171.3 203.4 171.5Q203.48 171.7 203.48 171.91Q203.48 172.13 203.4 172.32Q203.32 172.51 203.17 172.65Q203.03 172.8 202.84 172.88Q202.64 172.97 202.43 172.97Q202.21 172.97 202.02 172.88Q201.82 172.8 201.68 172.65Q201.54 172.51 201.46 172.32Q201.37 172.13 201.37 171.91Q201.37 171.7 201.46 171.5Q201.54 171.3 201.68 171.16Q201.82 171.02 202.02 170.93Q202.21 170.85 202.43 170.85ZM220.34 175.5H215.63V167.2H220.34V168.16H216.75V170.73H220.2V171.68H216.75V174.54H220.34ZM228.86 175.5H227.39L225.67 173.07L223.97 175.5H222.54L225.01 172.3L222.66 169.13H224.07L225.75 171.58L227.39 169.13H228.76L226.36 172.33ZM236.31 172.2Q236.31 173.05 236.07 173.68Q235.83 174.32 235.41 174.74Q234.99 175.16 234.42 175.37Q233.85 175.58 233.18 175.58Q232.88 175.58 232.58 175.54Q232.28 175.51 231.96 175.44V178.1H230.86V169.13H231.84L231.91 170.19Q232.39 169.54 232.93 169.28Q233.47 169.01 234.1 169.01Q234.64 169.01 235.06 169.24Q235.47 169.47 235.75 169.89Q236.03 170.3 236.17 170.89Q236.31 171.48 236.31 172.2ZM235.18 172.25Q235.18 171.75 235.1 171.33Q235.03 170.91 234.87 170.61Q234.71 170.31 234.47 170.15Q234.22 169.98 233.87 169.98Q233.67 169.98 233.45 170.04Q233.23 170.11 233 170.27Q232.77 170.42 232.51 170.68Q232.26 170.94 231.96 171.32V174.41Q232.27 174.54 232.61 174.61Q232.94 174.68 233.27 174.68Q234.16 174.68 234.67 174.07Q235.18 173.47 235.18 172.25ZM238.87 169.13H239.88L239.91 170.3Q240.47 169.62 241.02 169.32Q241.57 169.01 242.13 169.01Q243.12 169.01 243.63 169.65Q244.14 170.29 244.1 171.56H242.99Q243.01 170.72 242.74 170.34Q242.48 169.96 241.97 169.96Q241.75 169.96 241.52 170.04Q241.3 170.12 241.06 170.3Q240.82 170.47 240.56 170.75Q240.29 171.02 239.98 171.41V175.5H238.87ZM251.74 171.98Q251.74 172.21 251.73 172.37Q251.72 172.53 251.71 172.67H247.24Q247.24 173.65 247.78 174.17Q248.33 174.69 249.36 174.69Q249.64 174.69 249.92 174.67Q250.2 174.65 250.46 174.61Q250.72 174.57 250.95 174.53Q251.19 174.48 251.39 174.42V175.33Q250.94 175.46 250.38 175.53Q249.81 175.61 249.2 175.61Q248.38 175.61 247.79 175.39Q247.2 175.17 246.82 174.75Q246.44 174.33 246.26 173.71Q246.08 173.1 246.08 172.33Q246.08 171.65 246.28 171.05Q246.47 170.45 246.84 170Q247.21 169.55 247.75 169.28Q248.29 169.01 248.98 169.01Q249.64 169.01 250.16 169.22Q250.67 169.43 251.02 169.82Q251.38 170.2 251.56 170.75Q251.74 171.3 251.74 171.98ZM250.59 171.82Q250.61 171.39 250.51 171.04Q250.4 170.69 250.19 170.43Q249.98 170.18 249.66 170.04Q249.34 169.9 248.93 169.9Q248.56 169.9 248.27 170.03Q247.97 170.17 247.75 170.43Q247.54 170.68 247.4 171.04Q247.27 171.39 247.24 171.82ZM259.15 173.76Q259.15 174.1 259.03 174.36Q258.92 174.63 258.72 174.84Q258.53 175.04 258.27 175.19Q258.01 175.33 257.71 175.43Q257.42 175.53 257.1 175.57Q256.79 175.61 256.5 175.61Q255.85 175.61 255.31 175.56Q254.76 175.5 254.24 175.37V174.36Q254.8 174.52 255.35 174.6Q255.9 174.68 256.45 174.68Q257.24 174.68 257.63 174.47Q258.01 174.25 258.01 173.85Q258.01 173.68 257.95 173.54Q257.89 173.41 257.73 173.28Q257.57 173.16 257.23 173.02Q256.9 172.89 256.32 172.72Q255.89 172.59 255.53 172.43Q255.16 172.27 254.9 172.05Q254.63 171.82 254.48 171.53Q254.32 171.23 254.32 170.82Q254.32 170.56 254.45 170.24Q254.57 169.92 254.87 169.65Q255.17 169.37 255.68 169.19Q256.18 169.01 256.95 169.01Q257.32 169.01 257.78 169.05Q258.23 169.1 258.73 169.2V170.18Q258.21 170.05 257.74 169.99Q257.28 169.93 256.93 169.93Q256.52 169.93 256.24 170Q255.96 170.06 255.78 170.17Q255.61 170.28 255.53 170.43Q255.45 170.58 255.45 170.75Q255.45 170.92 255.52 171.06Q255.59 171.2 255.77 171.33Q255.95 171.46 256.27 171.59Q256.6 171.72 257.12 171.88Q257.68 172.04 258.07 172.22Q258.46 172.4 258.7 172.62Q258.94 172.85 259.04 173.13Q259.15 173.41 259.15 173.76ZM266.9 173.76Q266.9 174.1 266.78 174.36Q266.67 174.63 266.47 174.84Q266.27 175.04 266.01 175.19Q265.75 175.33 265.46 175.43Q265.16 175.53 264.85 175.57Q264.54 175.61 264.24 175.61Q263.6 175.61 263.05 175.56Q262.51 175.5 261.99 175.37V174.36Q262.55 174.52 263.1 174.6Q263.65 174.68 264.2 174.68Q264.99 174.68 265.37 174.47Q265.75 174.25 265.75 173.85Q265.75 173.68 265.69 173.54Q265.63 173.41 265.47 173.28Q265.32 173.16 264.98 173.02Q264.65 172.89 264.07 172.72Q263.64 172.59 263.27 172.43Q262.91 172.27 262.64 172.05Q262.38 171.82 262.22 171.53Q262.07 171.23 262.07 170.82Q262.07 170.56 262.2 170.24Q262.32 169.92 262.62 169.65Q262.92 169.37 263.42 169.19Q263.93 169.01 264.69 169.01Q265.07 169.01 265.52 169.05Q265.98 169.1 266.48 169.2V170.18Q265.96 170.05 265.49 169.99Q265.02 169.93 264.68 169.93Q264.27 169.93 263.99 170Q263.7 170.06 263.53 170.17Q263.35 170.28 263.28 170.43Q263.2 170.58 263.2 170.75Q263.2 170.92 263.27 171.06Q263.33 171.2 263.52 171.33Q263.7 171.46 264.02 171.59Q264.34 171.72 264.86 171.88Q265.43 172.04 265.82 172.22Q266.2 172.4 266.45 172.62Q266.69 172.85 266.79 173.13Q266.9 173.41 266.9 173.76Z" fill="#6b737c"/>
    <rect x="0.5" y="0.5" width="599" height="199" rx="12" fill="none" stroke="#1e242a"/>
  </g>
</svg>
